<svg xmlns="http://www.w3.org/2000/svg" xmlns:xlink="http://www.w3.org/1999/xlink" width="500" zoomAndPan="magnify" viewBox="0 0 375 374.999991" height="500" preserveAspectRatio="xMidYMid meet" version="1.0"><path fill="#000000" d="M 110.652344 22.171875 C 68.132812 41.835938 36.621094 75.867188 19.402344 116.046875 C 20.382812 115.894531 21.390625 115.898438 22.375 116.289062 L 80.066406 139.214844 C 80.160156 139.253906 80.21875 139.332031 80.3125 139.371094 C 91.28125 115.238281 110.347656 94.761719 135.78125 82.34375 C 135.730469 82.238281 135.617188 82.199219 135.570312 82.09375 L 110.988281 25.089844 C 110.574219 24.128906 110.535156 23.140625 110.652344 22.171875 Z M 85.425781 101.871094 C 80.578125 103.597656 77.386719 96.359375 82.632812 94.574219 C 87.894531 92.820312 93.507812 87.699219 89.59375 83.789062 C 86.875 81.074219 83.363281 82.726562 81.398438 86.085938 C 80.472656 87.664062 80.714844 88.527344 79.871094 90.351562 C 79.191406 91.757812 77.699219 93.332031 76.144531 93.363281 C 74.011719 93.4375 73.367188 91.511719 62.5625 81.0625 C 60.738281 79.242188 60.765625 77.183594 62.59375 75.351562 L 74.160156 63.789062 C 77.640625 60.300781 81.082031 64.28125 81.066406 66.457031 C 81.027344 68.820312 78.828125 69.738281 71.585938 77.347656 L 76.328125 82.089844 C 76.453125 81.652344 76.390625 81.207031 76.59375 80.769531 C 78.683594 76.128906 84.34375 72.15625 90.433594 73.84375 C 94.234375 74.894531 98.242188 78.644531 99.253906 83.070312 C 101.226562 91.496094 92.890625 99.582031 85.425781 101.871094 Z M 85.425781 101.871094 " fill-opacity="1" fill-rule="nonzero"/><path fill="#000000" d="M 15.816406 125.058594 C 0.75 166.074219 0.28125 212.441406 17.722656 255.96875 C 18.304688 255.179688 19.015625 254.476562 19.984375 254.066406 L 76.988281 229.492188 C 77.082031 229.449219 77.183594 229.460938 77.277344 229.429688 C 67.304688 202.964844 67.503906 174.996094 76.121094 149.902344 C 76.027344 149.875 75.933594 149.886719 75.84375 149.855469 L 18.148438 126.925781 C 17.160156 126.535156 16.425781 125.84375 15.816406 125.058594 Z M 36.953125 175.101562 C 44.742188 175.101562 52.046875 177.742188 55.027344 184.867188 C 57.964844 191.882812 55.34375 200.84375 52.503906 202.160156 C 50.359375 203.148438 47.65625 202.3125 46.90625 199.96875 C 46.339844 198.261719 47.546875 197.121094 48.152344 194.476562 C 49.082031 190.5 48.152344 186.527344 44.117188 184.917969 C 41.695312 183.960938 39.210938 184.144531 37.828125 184.0625 C 38.484375 184.351562 39.25 184.519531 39.792969 184.945312 C 46.679688 190.34375 42.914062 202.914062 31.121094 202.914062 C 23.527344 202.914062 18.355469 197.332031 18.355469 190.210938 C 18.355469 179.769531 26.285156 175.101562 36.953125 175.101562 Z M 36.953125 175.101562 " fill-opacity="1" fill-rule="nonzero"/><path fill="#000000" d="M 81.515625 239.992188 L 24.507812 264.570312 C 23.769531 264.890625 23.003906 265.039062 22.246094 265.039062 C 21.992188 265.039062 21.785156 264.859375 21.535156 264.828125 C 41.199219 307.441406 75.261719 338.988281 115.472656 356.195312 C 115.3125 355.207031 115.308594 354.183594 115.707031 353.183594 L 138.632812 295.496094 C 138.671875 295.398438 138.757812 295.332031 138.800781 295.238281 C 114.664062 284.28125 94.195312 265.230469 81.765625 239.816406 C 81.671875 239.867188 81.613281 239.949219 81.515625 239.992188 Z M 87.472656 274.289062 C 99.5 286.730469 101.84375 287.601562 101.816406 290.105469 C 101.769531 292.527344 98.296875 296.125 94.945312 292.738281 L 91.695312 289.496094 L 78.539062 302.652344 C 81.28125 303.433594 85.140625 303.378906 85.089844 306.976562 C 85.054688 309.503906 82.804688 311.703125 79.84375 310.859375 C 72.054688 308.976562 69.515625 309 67.03125 306.519531 C 66.097656 305.582031 65.605469 304.601562 65.566406 303.578125 C 65.480469 300.917969 66.996094 301.070312 84.890625 282.679688 C 82.59375 280.136719 78.429688 277.726562 81.90625 274.253906 C 82.789062 273.371094 85.585938 272.429688 87.472656 274.289062 Z M 87.472656 274.289062 " fill-opacity="1" fill-rule="nonzero"/><path fill="#000000" d="M 259.511719 19.964844 C 259.671875 20.949219 259.667969 21.964844 259.277344 22.957031 L 236.34375 80.644531 C 236.304688 80.742188 236.199219 80.777344 236.15625 80.875 C 260.3125 91.832031 280.792969 110.894531 293.21875 136.320312 C 293.3125 136.273438 293.371094 136.1875 293.46875 136.148438 L 350.472656 111.574219 C 351.460938 111.140625 352.484375 111.113281 353.480469 111.246094 C 333.761719 68.679688 299.703125 37.171875 259.511719 19.964844 Z M 306.609375 80.828125 C 306.242188 79.769531 305.804688 78.859375 305.300781 78.089844 C 301.863281 72.746094 296.9375 71.730469 291.292969 77.371094 L 290.617188 78.046875 C 291.296875 77.785156 291.984375 77.355469 292.664062 77.277344 C 298.851562 76.511719 305.039062 82.941406 302.609375 90.71875 C 300.011719 99.097656 288.953125 103.910156 281.195312 96.148438 C 273.761719 88.722656 276.207031 79.773438 283.660156 72.320312 C 291.738281 64.25 301.335938 62.589844 309.296875 70.554688 C 311.375 72.628906 312.953125 75.230469 313.757812 78.109375 C 315.296875 82.074219 308.890625 85.984375 306.609375 80.828125 Z M 306.609375 80.828125 " fill-opacity="1" fill-rule="nonzero"/><path fill="#000000" d="M 35.808594 189.683594 C 35.808594 184.511719 28.261719 184.007812 26.304688 187.316406 C 25.507812 188.664062 25.492188 190.675781 26.304688 192.050781 C 28.34375 195.507812 35.808594 194.867188 35.808594 189.683594 Z M 35.808594 189.683594 " fill-opacity="1" fill-rule="nonzero"/><path fill="#000000" d="M 286.464844 83.886719 C 282.332031 88.015625 286.542969 93.183594 290.515625 91.691406 C 292.171875 91.0625 293.726562 89.425781 294.289062 87.921875 C 295.769531 83.867188 290.65625 79.699219 286.464844 83.886719 Z M 286.464844 83.886719 " fill-opacity="1" fill-rule="nonzero"/><path fill="#000000" d="M 263.992188 351.050781 C 264.402344 352 264.445312 352.984375 264.335938 353.945312 C 306.925781 334.257812 338.445312 300.191406 355.644531 259.972656 C 355.320312 260.03125 355.046875 260.253906 354.714844 260.253906 C 352.632812 260.253906 355.289062 260.761719 294.914062 236.929688 C 294.835938 236.894531 294.785156 236.824219 294.707031 236.792969 C 283.808594 260.972656 264.703125 281.394531 239.25 293.816406 C 239.292969 293.902344 239.371094 293.960938 239.410156 294.050781 Z M 283.921875 284.667969 L 285.277344 286.03125 L 292.679688 278.628906 C 294.746094 276.5625 297.027344 276.050781 299.121094 278.140625 C 301.238281 280.257812 300.996094 282.078125 305.417969 305.503906 C 305.957031 308.148438 305.355469 309.917969 303.800781 311.472656 C 301.78125 313.492188 299.457031 313.242188 297.390625 311.175781 L 283.914062 297.699219 L 283.03125 298.582031 C 279.554688 302.054688 276.332031 298.367188 276.425781 296.210938 C 276.453125 295.292969 276.9375 294.367188 277.878906 293.429688 L 278.761719 292.546875 C 277.796875 291.402344 275.828125 290.246094 275.769531 287.871094 C 275.726562 284.796875 280.070312 280.816406 283.921875 284.667969 Z M 283.921875 284.667969 " fill-opacity="1" fill-rule="nonzero"/><path fill="#000000" d="M 355 122.078125 L 297.992188 146.652344 C 297.894531 146.695312 297.792969 146.675781 297.691406 146.714844 C 307.613281 173.183594 307.394531 201.15625 298.871094 226.238281 C 298.957031 226.269531 299.050781 226.253906 299.136719 226.289062 C 359.90625 250.847656 357.15625 248.476562 359.167969 251.09375 C 374.25 210.0625 374.71875 163.65625 357.300781 120.109375 C 356.714844 120.925781 355.988281 121.652344 355 122.078125 Z M 355.992188 196.976562 C 355.992188 200.957031 352.722656 202.417969 349.144531 200.957031 C 346.460938 199.875 346.085938 199.425781 321.824219 186.398438 C 317.21875 183.960938 318.117188 177.277344 321.769531 176.871094 C 324.140625 176.59375 324.171875 177.570312 348.175781 190.503906 C 348.453125 177.992188 347.503906 176.171875 349.191406 174.394531 C 350.941406 172.546875 355.992188 172.679688 355.992188 177.390625 Z M 355.992188 196.976562 " fill-opacity="1" fill-rule="nonzero"/><path fill="#000000" d="M 255.375 357.808594 C 254.601562 357.230469 253.898438 356.527344 253.488281 355.578125 L 228.90625 298.578125 C 228.867188 298.480469 228.882812 298.386719 228.847656 298.292969 C 202.363281 308.230469 174.398438 308.023438 149.324219 299.417969 C 149.292969 299.519531 149.308594 299.621094 149.269531 299.722656 L 126.34375 357.410156 C 125.949219 358.402344 125.238281 359.152344 124.441406 359.761719 C 165.464844 374.816406 211.84375 375.261719 255.375 357.808594 Z M 176.035156 346.464844 C 176.035156 338.421875 182.257812 334.007812 188.519531 327.609375 C 179.324219 327.371094 176.835938 328.246094 175.199219 326.621094 C 174.542969 325.960938 174.207031 325.007812 174.207031 323.753906 C 174.207031 321.296875 175.492188 319.847656 178.171875 319.847656 C 195.21875 320.140625 197.867188 319.105469 199.605469 320.917969 C 200.871094 322.246094 200.902344 324.992188 199.996094 326.671875 C 198.316406 329.734375 188.382812 338.375 186.265625 342.191406 C 183.726562 346.839844 186.710938 350.605469 193.117188 348.96875 C 195.65625 348.300781 196.851562 346.992188 198.636719 347.402344 C 200.953125 347.925781 202.199219 350.566406 201.140625 352.84375 C 198.742188 358.027344 176.035156 361.507812 176.035156 346.464844 Z M 176.035156 346.464844 " fill-opacity="1" fill-rule="nonzero"/><path fill="#000000" d="M 119.605469 18.316406 C 120.386719 18.894531 121.078125 19.605469 121.496094 20.566406 L 146.074219 77.566406 C 146.117188 77.667969 146.101562 77.773438 146.140625 77.875 C 172.632812 67.917969 200.589844 68.109375 225.652344 76.703125 C 225.6875 76.613281 225.667969 76.515625 225.703125 76.421875 L 248.636719 18.730469 C 249.035156 17.738281 249.730469 17 250.519531 16.394531 C 209.496094 1.332031 163.128906 0.878906 119.605469 18.316406 Z M 195.867188 35.859375 C 195.113281 36.457031 194.148438 36.804688 193.179688 37.144531 C 197.851562 38.332031 200.085938 41.558594 200.085938 46.070312 C 200.085938 57.6875 183.730469 58.90625 175.816406 54.816406 C 170.417969 52.457031 173.402344 45.320312 178.523438 47.527344 C 183.273438 49.519531 190.972656 50.285156 190.972656 45.128906 C 190.972656 40.90625 186.078125 41.734375 183.160156 41.585938 C 178.265625 41.585938 178.476562 36.539062 180.136719 35 C 181.570312 33.679688 183.785156 34.136719 185.089844 34.039062 C 187.6875 34.039062 189.875 32.9375 189.875 30.386719 C 189.875 25.730469 183.042969 26.253906 178.785156 28.304688 C 174.214844 30.082031 171.136719 23.597656 176.023438 21.226562 C 181.433594 18.449219 188.535156 18.308594 192.949219 20.160156 C 200.597656 23.363281 200.371094 32.308594 195.867188 35.859375 Z M 195.867188 35.859375 " fill-opacity="1" fill-rule="nonzero"/><path fill="#000000" d="M 295.265625 286.34375 L 290.425781 291.183594 L 297.570312 298.324219 Z M 295.265625 286.34375 " fill-opacity="1" fill-rule="nonzero"/><path fill="#000000" d="M 227.023438 101.722656 C 225.566406 100.988281 224.109375 102.691406 224.960938 104.027344 C 232.007812 115.085938 237.597656 129.308594 241.246094 145.714844 C 241.730469 148.148438 243.917969 150.089844 246.59375 150.089844 L 273.085938 150.089844 C 274.304688 150.089844 275.152344 148.753906 274.667969 147.660156 C 264.703125 127.363281 247.808594 110.957031 227.023438 101.722656 Z M 227.023438 101.722656 " fill-opacity="1" fill-rule="nonzero"/><path fill="#000000" d="M 204.664062 95.15625 C 204.417969 94.914062 204.054688 94.789062 203.8125 94.671875 C 200.042969 94.0625 196.15625 93.578125 192.265625 93.332031 L 192.265625 138.546875 C 201.023438 141.292969 202.875 148.929688 203.691406 150.089844 L 225.203125 150.089844 C 228.847656 150.089844 231.523438 146.566406 230.671875 143.164062 C 225.082031 121.40625 215.722656 104.027344 204.664062 95.15625 Z M 204.664062 95.15625 " fill-opacity="1" fill-rule="nonzero"/><path fill="#000000" d="M 229.089844 159.574219 L 208.429688 159.574219 L 208.550781 159.9375 L 222.769531 162 C 228.238281 162.851562 232.859375 166.253906 235.289062 170.996094 C 235.167969 168.808594 234.925781 166.621094 234.683594 164.433594 C 234.316406 161.636719 231.886719 159.574219 229.089844 159.574219 Z M 229.089844 159.574219 " fill-opacity="1" fill-rule="nonzero"/><path fill="#000000" d="M 221.679688 200.164062 C 223.460938 212.964844 225.457031 215.871094 223.621094 221.675781 L 228.96875 221.675781 C 231.765625 221.675781 234.195312 219.730469 234.5625 216.933594 C 236.515625 203.246094 236.660156 188.375 236.140625 183.148438 C 234.449219 189.070312 230.699219 190.664062 221.679688 200.164062 Z M 221.679688 200.164062 " fill-opacity="1" fill-rule="nonzero"/><path fill="#000000" d="M 147.90625 101.722656 C 127.121094 110.957031 110.230469 127.242188 100.382812 147.660156 C 99.777344 148.753906 100.625 150.089844 101.84375 150.089844 L 128.335938 150.089844 C 130.890625 150.089844 133.078125 148.148438 133.683594 145.714844 C 137.332031 129.308594 142.921875 115.210938 149.847656 104.148438 C 150.699219 102.816406 149.363281 101.113281 147.90625 101.722656 Z M 147.90625 101.722656 " fill-opacity="1" fill-rule="nonzero"/><path fill="#000000" d="M 94.1875 163.582031 C 91.632812 172.089844 90.417969 181.082031 90.417969 190.320312 C 90.417969 199.800781 91.753906 209.039062 94.429688 217.785156 C 95.035156 220.097656 97.347656 221.675781 99.777344 221.675781 L 124.933594 221.675781 C 128.335938 221.675781 130.769531 218.761719 130.402344 215.476562 C 128.578125 200.4375 128.386719 183.367188 130.28125 165.769531 C 130.769531 162.367188 128.214844 159.574219 124.933594 159.574219 L 99.53125 159.574219 C 97.101562 159.574219 94.792969 161.273438 94.1875 163.582031 Z M 94.1875 163.582031 " fill-opacity="1" fill-rule="nonzero"/><path fill="#000000" d="M 128.460938 231.277344 L 102.085938 231.277344 C 100.871094 231.277344 100.140625 232.613281 100.625 233.585938 C 110.59375 253.761719 127.367188 269.804688 147.90625 278.921875 C 149.363281 279.527344 150.699219 277.828125 149.847656 276.492188 C 142.921875 265.550781 137.453125 251.699219 133.808594 235.652344 C 133.199219 233.101562 131.011719 231.277344 128.460938 231.277344 Z M 128.460938 231.277344 " fill-opacity="1" fill-rule="nonzero"/><path fill="#000000" d="M 170.269531 285.484375 C 170.511719 285.726562 170.753906 285.847656 171.117188 285.96875 C 174.886719 286.578125 178.652344 287.0625 182.664062 287.304688 L 182.664062 236.746094 C 182.664062 233.710938 180.234375 231.277344 177.074219 231.277344 C 167.226562 231.277344 159.921875 231.277344 149.847656 231.277344 C 146.324219 231.277344 143.53125 234.679688 144.378906 238.203125 C 150.09375 259.597656 159.328125 276.734375 170.269531 285.484375 Z M 170.269531 285.484375 " fill-opacity="1" fill-rule="nonzero"/><path fill="#000000" d="M 140.371094 216.933594 C 140.734375 219.730469 143.164062 221.675781 145.839844 221.675781 L 151.429688 221.675781 C 149.597656 215.878906 151.601562 212.882812 153.375 200.164062 C 145.367188 191.738281 140.605469 189.386719 138.789062 183.027344 C 138.265625 188.25 138.402344 203.167969 140.371094 216.933594 Z M 140.371094 216.933594 " fill-opacity="1" fill-rule="nonzero"/><path fill="#000000" d="M 166.378906 159.9375 L 166.5 159.574219 L 145.71875 159.574219 C 142.921875 159.574219 140.613281 161.636719 140.25 164.433594 C 139.882812 166.742188 139.640625 169.050781 139.519531 171.480469 C 141.828125 166.378906 146.570312 162.851562 152.160156 162 Z M 166.378906 159.9375 " fill-opacity="1" fill-rule="nonzero"/><path fill="#000000" d="M 170.269531 95.15625 C 159.085938 104.027344 149.847656 121.40625 144.257812 143.164062 C 143.285156 146.566406 146.082031 150.089844 149.726562 150.089844 L 171.238281 150.089844 C 172.101562 148.878906 173.800781 141.457031 182.664062 138.667969 L 182.664062 93.332031 C 178.652344 93.578125 174.886719 94.0625 171.117188 94.671875 C 170.753906 94.789062 170.511719 94.914062 170.269531 95.15625 Z M 170.269531 95.15625 " fill-opacity="1" fill-rule="nonzero"/><path fill="#000000" d="M 227.023438 278.921875 C 247.566406 269.804688 264.335938 253.761719 274.304688 233.585938 C 274.910156 232.613281 274.058594 231.277344 272.84375 231.277344 L 246.472656 231.277344 C 243.917969 231.277344 241.730469 233.101562 241.125 235.652344 C 237.476562 251.699219 231.886719 265.671875 224.960938 276.609375 C 224.109375 277.949219 225.566406 279.648438 227.023438 278.921875 Z M 227.023438 278.921875 " fill-opacity="1" fill-rule="nonzero"/><path fill="#000000" d="M 275.398438 159.574219 L 249.996094 159.574219 C 246.59375 159.574219 244.160156 162.367188 244.527344 165.769531 C 246.542969 182.164062 246.398438 200.035156 244.527344 215.476562 C 244.160156 218.761719 246.59375 221.675781 249.996094 221.675781 L 275.152344 221.675781 C 277.585938 221.675781 279.894531 220.097656 280.621094 217.785156 C 283.175781 209.039062 284.632812 199.800781 284.632812 190.320312 C 284.632812 181.082031 283.296875 172.089844 280.867188 163.582031 C 280.136719 161.273438 277.949219 159.574219 275.398438 159.574219 Z M 275.398438 159.574219 " fill-opacity="1" fill-rule="nonzero"/><path fill="#000000" d="M 197.734375 231.277344 C 194.695312 231.277344 192.265625 233.710938 192.265625 236.746094 L 192.265625 287.304688 C 196.15625 287.0625 200.042969 286.578125 203.8125 285.96875 C 204.054688 285.847656 204.417969 285.726562 204.664062 285.605469 C 215.601562 276.734375 224.835938 259.597656 230.429688 238.203125 C 231.402344 234.679688 228.605469 231.277344 225.082031 231.277344 C 222.578125 231.277344 196.582031 231.277344 197.734375 231.277344 Z M 197.734375 231.277344 " fill-opacity="1" fill-rule="nonzero"/><path fill="#000000" d="M 236.140625 173.1875 C 235.898438 172.453125 235.53125 171.726562 235.289062 170.996094 C 235.777344 175.007812 236.140625 179.019531 236.140625 183.148438 C 237.234375 179.988281 237.234375 176.585938 236.140625 173.1875 Z M 236.140625 173.1875 " fill-opacity="1" fill-rule="nonzero"/><path fill="#000000" d="M 183.292969 149.601562 C 182.730469 150.75 173.925781 168.699219 174.492188 167.550781 C 173.804688 168.921875 172.433594 169.949219 170.832031 170.066406 L 151.054688 173.039062 C 147.28125 173.496094 145.679688 178.296875 148.425781 181.039062 L 162.828125 195.101562 C 163.859375 196.132812 164.429688 197.730469 164.085938 199.21875 L 160.65625 219 C 160.085938 222.886719 164.085938 225.746094 167.632812 223.914062 C 168.777344 223.300781 186.386719 213.925781 185.238281 214.539062 C 188.6875 212.949219 190.882812 215.453125 192.667969 216.140625 L 207.53125 223.914062 C 210.960938 225.746094 214.847656 222.886719 214.164062 219 L 210.960938 199.21875 C 210.617188 197.730469 211.074219 196.132812 212.21875 195.101562 L 226.511719 181.039062 C 229.367188 178.296875 227.882812 173.496094 223.996094 173.039062 L 204.214844 170.066406 C 202.617188 169.949219 201.242188 168.921875 200.558594 167.550781 C 199.992188 166.398438 191.191406 148.449219 191.753906 149.601562 C 190.039062 146.054688 185.007812 146.054688 183.292969 149.601562 Z M 183.292969 149.601562 " fill-opacity="1" fill-rule="nonzero"/></svg>