<svg xmlns="http://www.w3.org/2000/svg" xmlns:xlink="http://www.w3.org/1999/xlink" width="500" zoomAndPan="magnify" viewBox="0 0 375 374.999991" height="500" preserveAspectRatio="xMidYMid meet" version="1.0"><path fill="#000000" d="M 219.515625 278.582031 C 212.210938 278.59375 204.949219 278.007812 197.738281 276.824219 C 190.527344 275.640625 183.460938 273.878906 176.539062 271.53125 C 169.621094 269.183594 162.9375 266.285156 156.492188 262.835938 C 150.050781 259.386719 143.929688 255.433594 138.136719 250.980469 C 133.484375 247.40625 129.085938 243.546875 124.9375 239.398438 C 120.78125 235.257812 116.933594 230.851562 113.386719 226.179688 C 109.578125 221.222656 106.140625 216.023438 103.0625 210.585938 C 99.988281 205.144531 97.308594 199.515625 95.027344 193.699219 C 92.742188 187.882812 90.875 181.933594 89.429688 175.851562 C 87.980469 169.773438 86.964844 163.621094 86.382812 157.398438 C 86.359375 157.128906 86.359375 156.859375 86.390625 156.589844 C 86.421875 156.316406 86.480469 156.054688 86.566406 155.796875 C 86.652344 155.539062 86.765625 155.292969 86.902344 155.058594 C 87.039062 154.824219 87.199219 154.609375 87.382812 154.40625 C 87.566406 154.207031 87.765625 154.027344 87.988281 153.867188 C 88.207031 153.707031 88.441406 153.574219 88.6875 153.464844 C 88.9375 153.355469 89.195312 153.273438 89.460938 153.214844 C 89.726562 153.160156 89.992188 153.132812 90.265625 153.132812 L 131.855469 153.132812 C 132.683594 153.109375 133.347656 152.773438 133.851562 152.117188 L 156.390625 123.800781 C 156.582031 123.5625 156.800781 123.347656 157.042969 123.15625 C 157.289062 122.96875 157.550781 122.808594 157.832031 122.683594 C 158.109375 122.554688 158.402344 122.460938 158.703125 122.402344 C 159.007812 122.34375 159.3125 122.324219 159.621094 122.335938 C 159.929688 122.351562 160.230469 122.402344 160.527344 122.488281 C 160.820312 122.574219 161.105469 122.691406 161.371094 122.84375 C 161.640625 122.996094 161.886719 123.179688 162.109375 123.390625 C 162.335938 123.597656 162.53125 123.832031 162.703125 124.089844 L 192.089844 168.816406 C 192.308594 169.164062 192.59375 169.445312 192.941406 169.664062 C 193.292969 169.878906 193.671875 170.007812 194.078125 170.046875 C 194.464844 170.0625 194.832031 169.992188 195.183594 169.835938 C 195.535156 169.679688 195.832031 169.453125 196.078125 169.152344 L 208.171875 155.242188 C 208.542969 154.816406 208.984375 154.488281 209.496094 154.253906 C 210.007812 154.019531 210.546875 153.902344 211.109375 153.898438 L 230.152344 153.898438 C 230.609375 153.894531 231.03125 153.777344 231.429688 153.546875 C 231.824219 153.316406 232.136719 153.003906 232.367188 152.613281 L 255.59375 114.324219 C 255.960938 113.71875 256.453125 113.25 257.074219 112.914062 C 257.695312 112.574219 258.359375 112.421875 259.066406 112.445312 C 259.769531 112.46875 260.421875 112.667969 261.019531 113.046875 C 261.613281 113.425781 262.074219 113.929688 262.398438 114.558594 L 290.242188 168.546875 C 290.421875 168.925781 290.679688 169.246094 291.011719 169.507812 C 291.34375 169.769531 291.714844 169.945312 292.128906 170.03125 C 292.011719 170 292.300781 170.03125 292.542969 170.03125 C 293.195312 170.035156 293.761719 169.8125 294.242188 169.363281 L 309.773438 154.703125 C 310.527344 153.996094 311.417969 153.640625 312.453125 153.636719 L 348.964844 153.636719 C 349.238281 153.636719 349.507812 153.664062 349.777344 153.71875 C 350.042969 153.777344 350.304688 153.859375 350.554688 153.96875 C 350.804688 154.078125 351.039062 154.214844 351.261719 154.375 C 351.484375 154.53125 351.6875 154.714844 351.871094 154.917969 C 352.054688 155.117188 352.214844 155.339844 352.355469 155.574219 C 352.492188 155.8125 352.605469 156.058594 352.691406 156.320312 C 352.777344 156.578125 352.832031 156.84375 352.863281 157.117188 C 352.894531 157.390625 352.894531 157.660156 352.867188 157.933594 C 352.667969 159.976562 352.417969 162.019531 352.125 164.050781 C 351.828125 166.085938 351.488281 168.113281 351.097656 170.128906 C 350.710938 172.148438 350.277344 174.15625 349.796875 176.152344 C 349.316406 178.152344 348.789062 180.136719 348.214844 182.113281 C 347.644531 184.085938 347.027344 186.042969 346.363281 187.988281 C 345.703125 189.933594 344.996094 191.863281 344.242188 193.777344 C 343.492188 195.691406 342.695312 197.585938 341.859375 199.460938 C 341.019531 201.335938 340.136719 203.191406 339.214844 205.027344 C 338.289062 206.863281 337.324219 208.675781 336.316406 210.464844 C 335.308594 212.257812 334.257812 214.023438 333.171875 215.765625 C 332.082031 217.507812 330.953125 219.222656 329.785156 220.914062 C 328.617188 222.605469 327.410156 224.269531 326.164062 225.902344 C 324.917969 227.535156 323.636719 229.140625 322.320312 230.71875 C 321 232.292969 319.644531 233.835938 318.253906 235.351562 C 316.867188 236.863281 315.441406 238.34375 313.984375 239.789062 C 312.523438 241.238281 311.035156 242.652344 309.511719 244.03125 C 307.988281 245.40625 306.433594 246.75 304.847656 248.058594 C 303.261719 249.363281 301.648438 250.632812 300.003906 251.867188 C 298.359375 253.097656 296.6875 254.292969 294.992188 255.449219 C 293.292969 256.601562 291.566406 257.71875 289.816406 258.792969 C 288.066406 259.871094 286.292969 260.90625 284.496094 261.898438 C 282.695312 262.894531 280.878906 263.84375 279.035156 264.753906 C 277.195312 265.664062 275.332031 266.53125 273.449219 267.355469 C 271.570312 268.179688 269.667969 268.960938 267.75 269.695312 C 265.832031 270.433594 263.898438 271.125 261.949219 271.769531 C 260 272.417969 258.039062 273.019531 256.0625 273.578125 C 254.082031 274.132812 252.09375 274.644531 250.09375 275.109375 C 248.09375 275.574219 246.082031 275.992188 244.0625 276.363281 C 242.042969 276.738281 240.015625 277.0625 237.980469 277.339844 C 235.945312 277.621094 233.902344 277.851562 231.859375 278.035156 C 229.8125 278.21875 227.765625 278.355469 225.710938 278.445312 C 223.660156 278.535156 221.605469 278.578125 219.550781 278.574219 Z M 94.648438 160.941406 C 95.351562 166.421875 96.410156 171.835938 97.832031 177.175781 C 99.25 182.519531 101.011719 187.746094 103.121094 192.855469 C 105.230469 197.964844 107.664062 202.914062 110.425781 207.699219 C 113.1875 212.488281 116.253906 217.074219 119.621094 221.457031 C 122.945312 225.839844 126.554688 229.976562 130.453125 233.859375 C 132.519531 235.925781 134.652344 237.921875 136.855469 239.839844 C 139.058594 241.757812 141.324219 243.601562 143.65625 245.363281 C 145.984375 247.125 148.375 248.800781 150.820312 250.398438 C 153.269531 251.992188 155.769531 253.503906 158.320312 254.921875 C 160.871094 256.34375 163.472656 257.675781 166.117188 258.917969 C 168.761719 260.160156 171.445312 261.304688 174.167969 262.359375 C 176.894531 263.414062 179.652344 264.371094 182.441406 265.234375 C 185.234375 266.097656 188.050781 266.863281 190.894531 267.527344 C 193.738281 268.195312 196.601562 268.761719 199.484375 269.230469 C 202.371094 269.695312 205.265625 270.0625 208.175781 270.328125 C 211.082031 270.59375 214 270.757812 216.917969 270.820312 C 219.839844 270.882812 222.757812 270.84375 225.675781 270.707031 C 228.59375 270.566406 231.503906 270.324219 234.402344 269.980469 C 237.304688 269.640625 240.191406 269.195312 243.058594 268.652344 C 245.929688 268.109375 248.777344 267.46875 251.605469 266.726562 C 254.429688 265.984375 257.226562 265.144531 259.992188 264.210938 C 262.761719 263.273438 265.492188 262.242188 268.1875 261.117188 C 270.882812 259.992188 273.535156 258.773438 276.148438 257.464844 C 278.757812 256.152344 281.320312 254.753906 283.832031 253.265625 C 286.347656 251.777344 288.804688 250.203125 291.210938 248.542969 C 293.613281 246.882812 295.957031 245.140625 298.242188 243.320312 C 300.527344 241.496094 302.742188 239.597656 304.894531 237.621094 C 307.046875 235.640625 309.125 233.59375 311.132812 231.472656 C 313.144531 229.347656 315.078125 227.160156 316.933594 224.90625 C 318.789062 222.648438 320.566406 220.332031 322.261719 217.949219 C 323.957031 215.570312 325.570312 213.136719 327.09375 210.644531 C 328.621094 208.152344 330.058594 205.609375 331.410156 203.019531 C 332.757812 200.425781 334.015625 197.789062 335.183594 195.113281 C 336.351562 192.433594 337.421875 189.714844 338.402344 186.960938 C 339.378906 184.207031 340.261719 181.421875 341.042969 178.609375 C 341.828125 175.792969 342.515625 172.953125 343.101562 170.089844 C 343.6875 167.226562 344.175781 164.347656 344.5625 161.449219 L 313.984375 161.449219 L 299.574219 175.054688 C 298.410156 176.09375 297.082031 176.847656 295.59375 177.320312 C 294.105469 177.789062 292.585938 177.9375 291.035156 177.753906 C 290.21875 177.617188 289.425781 177.386719 288.65625 177.066406 C 287.890625 176.742188 287.171875 176.335938 286.5 175.847656 C 285.828125 175.355469 285.222656 174.796875 284.683594 174.164062 C 284.140625 173.535156 283.679688 172.847656 283.296875 172.109375 L 258.640625 124.328125 L 239.035156 156.667969 C 238.578125 157.4375 238.027344 158.132812 237.386719 158.757812 C 236.746094 159.382812 236.035156 159.917969 235.257812 160.359375 C 234.480469 160.800781 233.65625 161.136719 232.792969 161.367188 C 231.925781 161.59375 231.046875 161.707031 230.152344 161.707031 L 212.902344 161.707031 L 201.976562 174.261719 C 201.457031 174.871094 200.875 175.410156 200.230469 175.882812 C 199.585938 176.355469 198.894531 176.746094 198.15625 177.058594 C 197.417969 177.367188 196.65625 177.589844 195.867188 177.71875 C 195.078125 177.851562 194.285156 177.886719 193.484375 177.832031 C 191.875 177.695312 190.371094 177.214844 188.980469 176.382812 C 187.589844 175.554688 186.453125 174.464844 185.566406 173.109375 L 159.132812 132.894531 L 139.933594 157.019531 C 138.953125 158.253906 137.753906 159.21875 136.335938 159.910156 C 134.921875 160.597656 133.421875 160.945312 131.847656 160.957031 Z M 94.648438 160.941406 " fill-opacity="1" fill-rule="nonzero"/><path fill="#000000" d="M 294.328125 159.949219 C 294.105469 159.949219 293.886719 159.929688 293.667969 159.890625 C 293.0625 159.785156 292.515625 159.554688 292.019531 159.191406 C 291.527344 158.832031 291.136719 158.378906 290.855469 157.835938 L 261.65625 101.269531 C 261.472656 100.824219 261.179688 100.460938 260.78125 100.1875 C 260.382812 99.910156 259.941406 99.761719 259.457031 99.746094 C 258.972656 99.730469 258.519531 99.84375 258.105469 100.09375 C 257.6875 100.339844 257.371094 100.679688 257.152344 101.113281 L 229.925781 146.011719 C 229.570312 146.597656 229.097656 147.058594 228.503906 147.390625 C 227.910156 147.726562 227.269531 147.894531 226.589844 147.894531 L 208.246094 147.894531 C 207.476562 147.910156 206.84375 148.210938 206.34375 148.796875 L 197.851562 158.535156 C 197.449219 158.988281 196.964844 159.335938 196.402344 159.566406 C 195.839844 159.800781 195.257812 159.902344 194.648438 159.867188 C 194.039062 159.824219 193.472656 159.648438 192.949219 159.34375 C 192.421875 159.035156 191.992188 158.625 191.65625 158.117188 L 162.058594 113.054688 C 161.847656 112.710938 161.570312 112.433594 161.226562 112.226562 C 160.882812 112.019531 160.507812 111.90625 160.105469 111.882812 C 159.703125 111.863281 159.316406 111.941406 158.945312 112.109375 C 158.578125 112.277344 158.269531 112.519531 158.015625 112.835938 L 131.871094 145.632812 C 131.5 146.09375 131.046875 146.457031 130.515625 146.710938 C 129.980469 146.96875 129.414062 147.097656 128.824219 147.097656 L 89.648438 147.097656 C 89.390625 147.097656 89.136719 147.074219 88.882812 147.023438 C 88.628906 146.972656 88.382812 146.898438 88.144531 146.796875 C 87.90625 146.699219 87.679688 146.578125 87.46875 146.433594 C 87.253906 146.289062 87.054688 146.125 86.875 145.941406 C 86.691406 145.757812 86.53125 145.558594 86.390625 145.339844 C 86.246094 145.125 86.128906 144.898438 86.03125 144.660156 C 85.933594 144.417969 85.863281 144.171875 85.8125 143.917969 C 85.765625 143.664062 85.742188 143.410156 85.746094 143.152344 C 85.773438 140.976562 85.855469 138.800781 85.988281 136.625 C 86.121094 134.453125 86.308594 132.285156 86.546875 130.121094 C 86.785156 127.957031 87.078125 125.800781 87.421875 123.648438 C 87.765625 121.5 88.164062 119.359375 88.609375 117.230469 C 89.058594 115.097656 89.558594 112.980469 90.109375 110.875 C 90.664062 108.769531 91.265625 106.675781 91.917969 104.601562 C 92.574219 102.523438 93.277344 100.464844 94.03125 98.421875 C 94.785156 96.378906 95.589844 94.355469 96.441406 92.351562 C 97.292969 90.351562 98.195312 88.367188 99.144531 86.410156 C 100.09375 84.449219 101.089844 82.515625 102.132812 80.605469 C 103.175781 78.695312 104.265625 76.8125 105.402344 74.953125 C 106.539062 73.097656 107.71875 71.265625 108.941406 69.46875 C 110.167969 67.667969 111.433594 65.898438 112.746094 64.160156 C 114.054688 62.421875 115.40625 60.71875 116.800781 59.046875 C 118.195312 57.375 119.628906 55.738281 121.101562 54.132812 C 122.574219 52.53125 124.085938 50.96875 125.636719 49.4375 C 127.1875 47.910156 128.773438 46.421875 130.394531 44.96875 C 132.019531 43.519531 133.675781 42.109375 135.367188 40.738281 C 137.058594 39.367188 138.78125 38.039062 140.539062 36.753906 C 142.292969 35.46875 144.078125 34.226562 145.894531 33.027344 C 147.714844 31.828125 149.558594 30.675781 151.429688 29.566406 C 153.304688 28.457031 155.203125 27.394531 157.125 26.378906 C 159.050781 25.363281 161 24.394531 162.972656 23.472656 C 164.941406 22.550781 166.9375 21.679688 168.949219 20.855469 C 170.964844 20.03125 172.996094 19.257812 175.050781 18.53125 C 177.101562 17.808594 179.167969 17.132812 181.253906 16.507812 C 183.339844 15.886719 185.4375 15.3125 187.550781 14.792969 C 189.664062 14.269531 191.789062 13.800781 193.925781 13.382812 C 196.058594 12.964844 198.203125 12.601562 200.359375 12.285156 C 202.511719 11.972656 204.671875 11.714844 206.835938 11.503906 C 209.003906 11.296875 211.171875 11.144531 213.347656 11.042969 C 215.519531 10.9375 217.695312 10.890625 219.871094 10.894531 C 222.046875 10.898438 224.222656 10.957031 226.394531 11.066406 C 228.570312 11.175781 230.738281 11.339844 232.902344 11.558594 C 235.070312 11.773438 237.226562 12.042969 239.378906 12.363281 C 241.53125 12.683594 243.675781 13.058594 245.808594 13.484375 C 247.945312 13.910156 250.066406 14.390625 252.175781 14.917969 C 254.289062 15.449219 256.382812 16.03125 258.464844 16.660156 C 260.550781 17.292969 262.613281 17.976562 264.664062 18.707031 C 266.714844 19.441406 268.742188 20.222656 270.753906 21.054688 C 272.765625 21.886719 274.753906 22.765625 276.722656 23.695312 C 278.691406 24.625 280.636719 25.601562 282.554688 26.625 C 284.476562 27.648438 286.371094 28.71875 288.238281 29.835938 C 290.109375 30.953125 291.949219 32.113281 293.757812 33.320312 C 295.570312 34.523438 297.351562 35.773438 299.101562 37.066406 C 300.855469 38.359375 302.574219 39.695312 304.257812 41.070312 C 305.945312 42.449219 307.59375 43.863281 309.210938 45.320312 C 310.828125 46.78125 312.410156 48.273438 313.953125 49.808594 C 315.496094 51.34375 317.003906 52.914062 318.46875 54.523438 C 319.9375 56.132812 321.363281 57.773438 322.753906 59.449219 C 324.140625 61.128906 325.484375 62.839844 326.789062 64.582031 C 328.09375 66.324219 329.351562 68.097656 330.570312 69.902344 C 331.789062 71.707031 332.960938 73.542969 334.089844 75.402344 C 335.21875 77.265625 336.300781 79.152344 337.335938 81.066406 C 338.371094 82.984375 339.359375 84.921875 340.300781 86.882812 C 341.242188 88.847656 342.136719 90.832031 342.980469 92.839844 C 343.824219 94.84375 344.621094 96.871094 345.367188 98.917969 C 346.113281 100.960938 346.808594 103.023438 347.453125 105.101562 C 348.101562 107.183594 348.695312 109.277344 349.238281 111.382812 C 349.78125 113.492188 350.273438 115.613281 350.714844 117.746094 C 351.152344 119.878906 351.542969 122.019531 351.878906 124.171875 C 352.214844 126.320312 352.496094 128.480469 352.726562 130.644531 C 352.957031 132.808594 353.136719 134.980469 353.261719 137.152344 C 353.386719 139.328125 353.457031 141.5 353.476562 143.679688 C 353.476562 143.9375 353.453125 144.191406 353.40625 144.445312 C 353.359375 144.699219 353.285156 144.945312 353.1875 145.183594 C 353.089844 145.421875 352.972656 145.648438 352.828125 145.863281 C 352.6875 146.078125 352.523438 146.277344 352.34375 146.460938 C 352.164062 146.644531 351.964844 146.804688 351.75 146.949219 C 351.539062 147.09375 351.3125 147.214844 351.074219 147.3125 C 350.835938 147.414062 350.589844 147.488281 350.339844 147.539062 C 350.085938 147.589844 349.832031 147.613281 349.574219 147.613281 L 309.9375 147.613281 C 309.277344 147.621094 308.707031 147.855469 308.234375 148.316406 L 297 158.898438 C 296.246094 159.601562 295.355469 159.949219 294.328125 159.949219 Z M 259.402344 91.933594 L 259.730469 91.933594 C 260.65625 91.980469 261.5625 92.144531 262.449219 92.433594 C 263.332031 92.71875 264.164062 93.117188 264.941406 93.625 C 265.71875 94.132812 266.417969 94.730469 267.039062 95.421875 C 267.660156 96.117188 268.179688 96.875 268.597656 97.707031 L 295.414062 149.632812 L 302.890625 142.605469 C 303.84375 141.703125 304.929688 141.007812 306.144531 140.523438 C 307.363281 140.035156 308.628906 139.789062 309.9375 139.785156 L 345.578125 139.785156 C 345.5 137.777344 345.375 135.769531 345.203125 133.765625 C 345.03125 131.761719 344.8125 129.761719 344.542969 127.769531 C 344.277344 125.773438 343.960938 123.789062 343.597656 121.808594 C 343.234375 119.832031 342.824219 117.863281 342.367188 115.902344 C 341.910156 113.945312 341.40625 112 340.855469 110.0625 C 340.304688 108.128906 339.710938 106.207031 339.066406 104.300781 C 338.425781 102.394531 337.738281 100.507812 337.003906 98.632812 C 336.273438 96.761719 335.496094 94.90625 334.675781 93.070312 C 333.855469 91.234375 332.988281 89.417969 332.082031 87.621094 C 331.171875 85.828125 330.222656 84.054688 329.230469 82.308594 C 328.238281 80.558594 327.203125 78.832031 326.128906 77.132812 C 325.054688 75.433594 323.9375 73.761719 322.785156 72.113281 C 321.628906 70.46875 320.433594 68.851562 319.203125 67.261719 C 317.96875 65.671875 316.699219 64.113281 315.394531 62.585938 C 314.085938 61.054688 312.742188 59.558594 311.363281 58.09375 C 309.984375 56.632812 308.574219 55.199219 307.125 53.804688 C 305.679688 52.40625 304.199219 51.046875 302.6875 49.722656 C 301.175781 48.394531 299.632812 47.105469 298.058594 45.855469 C 296.484375 44.601562 294.882812 43.390625 293.25 42.214844 C 291.617188 41.039062 289.960938 39.902344 288.273438 38.808594 C 286.585938 37.710938 284.875 36.65625 283.140625 35.644531 C 281.402344 34.628906 279.644531 33.65625 277.859375 32.730469 C 276.078125 31.800781 274.273438 30.914062 272.449219 30.070312 C 270.625 29.226562 268.777344 28.425781 266.914062 27.671875 C 265.050781 26.917969 263.171875 26.207031 261.273438 25.542969 C 259.375 24.878906 257.464844 24.257812 255.535156 23.683594 C 253.609375 23.113281 251.671875 22.585938 249.71875 22.105469 C 247.765625 21.625 245.804688 21.191406 243.828125 20.804688 C 241.855469 20.417969 239.875 20.078125 237.886719 19.785156 C 235.898438 19.496094 233.902344 19.25 231.902344 19.054688 C 229.902344 18.859375 227.894531 18.710938 225.886719 18.609375 C 223.878906 18.507812 221.871094 18.457031 219.859375 18.453125 C 217.851562 18.449219 215.839844 18.492188 213.832031 18.585938 C 211.824219 18.675781 209.820312 18.816406 207.816406 19.003906 C 205.816406 19.195312 203.820312 19.429688 201.828125 19.714844 C 199.839844 19.996094 197.855469 20.328125 195.882812 20.707031 C 193.90625 21.085938 191.941406 21.511719 189.988281 21.984375 C 188.035156 22.457031 186.09375 22.976562 184.164062 23.539062 C 182.234375 24.105469 180.320312 24.71875 178.417969 25.375 C 176.519531 26.03125 174.636719 26.734375 172.769531 27.480469 C 170.902344 28.226562 169.054688 29.019531 167.226562 29.855469 C 165.398438 30.691406 163.589844 31.570312 161.800781 32.492188 C 160.015625 33.414062 158.253906 34.378906 156.511719 35.386719 C 154.769531 36.394531 153.054688 37.441406 151.367188 38.53125 C 149.675781 39.617188 148.011719 40.746094 146.375 41.914062 C 144.738281 43.085938 143.128906 44.292969 141.550781 45.535156 C 139.972656 46.78125 138.425781 48.066406 136.90625 49.382812 C 135.390625 50.703125 133.90625 52.058594 132.453125 53.449219 C 131 54.839844 129.582031 56.265625 128.195312 57.722656 C 126.8125 59.183594 125.464844 60.671875 124.148438 62.195312 C 122.835938 63.71875 121.5625 65.273438 120.320312 66.855469 C 119.082031 68.441406 117.882812 70.054688 116.722656 71.695312 C 115.558594 73.335938 114.4375 75.007812 113.355469 76.703125 C 112.273438 78.398438 111.230469 80.117188 110.230469 81.863281 C 109.234375 83.609375 108.273438 85.375 107.359375 87.167969 C 106.445312 88.957031 105.574219 90.769531 104.746094 92.601562 C 103.914062 94.433594 103.132812 96.285156 102.390625 98.15625 C 101.652344 100.027344 100.957031 101.914062 100.308594 103.816406 C 99.65625 105.722656 99.054688 107.640625 98.496094 109.570312 C 97.9375 111.503906 97.425781 113.449219 96.960938 115.40625 C 96.496094 117.363281 96.078125 119.328125 95.707031 121.308594 C 95.335938 123.285156 95.011719 125.269531 94.734375 127.261719 C 94.460938 129.253906 94.230469 131.25 94.050781 133.253906 C 93.871094 135.257812 93.738281 137.265625 93.652344 139.273438 L 126.921875 139.273438 L 151.894531 107.953125 C 152.148438 107.636719 152.417969 107.332031 152.707031 107.042969 C 152.996094 106.757812 153.300781 106.488281 153.621094 106.234375 C 153.941406 105.984375 154.277344 105.753906 154.625 105.542969 C 154.972656 105.332031 155.332031 105.140625 155.703125 104.972656 C 156.074219 104.804688 156.453125 104.660156 156.839844 104.535156 C 157.230469 104.410156 157.625 104.3125 158.023438 104.234375 C 158.421875 104.160156 158.824219 104.109375 159.230469 104.078125 C 159.636719 104.050781 160.046875 104.046875 160.453125 104.066406 C 160.859375 104.085938 161.261719 104.132812 161.664062 104.199219 C 162.066406 104.269531 162.460938 104.359375 162.851562 104.476562 C 163.242188 104.59375 163.625 104.730469 163.996094 104.890625 C 164.371094 105.054688 164.734375 105.234375 165.085938 105.441406 C 165.4375 105.644531 165.777344 105.871094 166.105469 106.113281 C 166.429688 106.359375 166.738281 106.621094 167.03125 106.90625 C 167.328125 107.1875 167.601562 107.484375 167.863281 107.800781 C 168.121094 108.113281 168.359375 108.441406 168.578125 108.785156 L 195.363281 149.527344 L 200.511719 143.625 C 201.488281 142.507812 202.65625 141.640625 204.007812 141.023438 C 205.355469 140.40625 206.773438 140.09375 208.257812 140.082031 L 224.375 140.082031 L 250.519531 97.015625 C 250.976562 96.242188 251.523438 95.539062 252.160156 94.910156 C 252.800781 94.28125 253.507812 93.742188 254.289062 93.296875 C 255.066406 92.851562 255.890625 92.511719 256.757812 92.28125 C 257.621094 92.050781 258.503906 91.933594 259.402344 91.933594 Z M 259.402344 91.933594 " fill-opacity="1" fill-rule="nonzero"/><path fill="#000000" d="M 219.578125 245.203125 C 214.097656 245.214844 208.652344 244.773438 203.242188 243.886719 C 197.832031 242.996094 192.53125 241.671875 187.339844 239.910156 C 182.144531 238.148438 177.132812 235.972656 172.300781 233.386719 C 167.464844 230.800781 162.875 227.832031 158.53125 224.488281 C 155.03125 221.800781 151.714844 218.902344 148.582031 215.792969 C 145.492188 212.703125 142.632812 209.410156 140 205.921875 C 137.308594 202.417969 134.855469 198.75 132.648438 194.925781 C 130.4375 191.097656 128.488281 187.140625 126.800781 183.058594 C 125.113281 178.976562 123.699219 174.796875 122.558594 170.527344 C 121.421875 166.257812 120.566406 161.933594 119.996094 157.550781 C 119.960938 157.273438 119.953125 157 119.976562 156.722656 C 120 156.445312 120.050781 156.171875 120.132812 155.90625 C 120.210938 155.640625 120.320312 155.386719 120.457031 155.144531 C 120.589844 154.902344 120.75 154.675781 120.933594 154.46875 C 121.117188 154.257812 121.320312 154.070312 121.542969 153.90625 C 121.765625 153.742188 122.003906 153.601562 122.257812 153.484375 C 122.507812 153.371094 122.773438 153.285156 123.042969 153.226562 C 123.316406 153.167969 123.589844 153.136719 123.867188 153.140625 L 131.855469 153.140625 C 132.683594 153.117188 133.347656 152.78125 133.851562 152.125 L 156.390625 123.808594 C 156.582031 123.570312 156.800781 123.355469 157.042969 123.164062 C 157.289062 122.976562 157.550781 122.816406 157.832031 122.691406 C 158.109375 122.5625 158.402344 122.46875 158.703125 122.410156 C 159.007812 122.351562 159.3125 122.332031 159.621094 122.34375 C 159.929688 122.359375 160.230469 122.410156 160.527344 122.496094 C 160.820312 122.582031 161.105469 122.699219 161.371094 122.851562 C 161.640625 123.003906 161.886719 123.1875 162.109375 123.398438 C 162.335938 123.605469 162.53125 123.839844 162.703125 124.097656 L 192.089844 168.824219 C 192.308594 169.171875 192.59375 169.453125 192.941406 169.671875 C 193.292969 169.886719 193.671875 170.015625 194.078125 170.054688 C 194.464844 170.070312 194.832031 170 195.183594 169.84375 C 195.535156 169.6875 195.835938 169.460938 196.082031 169.160156 L 208.175781 155.25 C 208.546875 154.824219 208.984375 154.492188 209.496094 154.257812 C 210.007812 154.023438 210.546875 153.902344 211.109375 153.898438 L 230.152344 153.898438 C 230.609375 153.894531 231.03125 153.777344 231.429688 153.546875 C 231.824219 153.316406 232.136719 153.003906 232.367188 152.613281 L 255.59375 114.324219 C 255.960938 113.71875 256.453125 113.25 257.074219 112.914062 C 257.695312 112.574219 258.359375 112.421875 259.066406 112.445312 C 259.769531 112.46875 260.421875 112.667969 261.019531 113.046875 C 261.613281 113.425781 262.074219 113.929688 262.398438 114.558594 L 290.242188 168.546875 C 290.421875 168.925781 290.679688 169.246094 291.011719 169.507812 C 291.34375 169.769531 291.714844 169.945312 292.128906 170.03125 C 292.011719 170 292.300781 170.03125 292.542969 170.03125 C 293.195312 170.035156 293.761719 169.8125 294.242188 169.363281 L 309.773438 154.703125 C 310.527344 153.996094 311.417969 153.640625 312.453125 153.636719 L 315.296875 153.636719 C 315.574219 153.636719 315.847656 153.667969 316.121094 153.726562 C 316.390625 153.785156 316.652344 153.871094 316.90625 153.984375 C 317.160156 154.101562 317.398438 154.238281 317.621094 154.40625 C 317.84375 154.570312 318.046875 154.757812 318.230469 154.964844 C 318.414062 155.175781 318.570312 155.398438 318.707031 155.640625 C 318.84375 155.886719 318.949219 156.140625 319.03125 156.40625 C 319.113281 156.671875 319.164062 156.941406 319.1875 157.21875 C 319.210938 157.496094 319.203125 157.769531 319.167969 158.046875 C 318.46875 163.484375 317.324219 168.828125 315.738281 174.078125 C 314.152344 179.324219 312.144531 184.40625 309.714844 189.324219 C 307.285156 194.238281 304.46875 198.921875 301.261719 203.367188 C 298.058594 207.816406 294.507812 211.96875 290.613281 215.828125 C 288.289062 218.15625 285.855469 220.363281 283.3125 222.453125 C 280.769531 224.539062 278.128906 226.496094 275.394531 228.324219 C 272.65625 230.152344 269.839844 231.839844 266.9375 233.390625 C 264.035156 234.941406 261.0625 236.34375 258.023438 237.601562 C 254.984375 238.859375 251.890625 239.960938 248.742188 240.914062 C 245.589844 241.867188 242.402344 242.664062 239.175781 243.300781 C 235.949219 243.9375 232.699219 244.417969 229.425781 244.734375 C 226.152344 245.054688 222.871094 245.210938 219.578125 245.203125 Z M 128.402344 160.941406 C 129.710938 168.261719 131.867188 175.324219 134.871094 182.125 C 137.878906 188.929688 141.648438 195.277344 146.183594 201.171875 C 148.605469 204.378906 151.238281 207.40625 154.082031 210.25 C 156.980469 213.121094 160.046875 215.800781 163.28125 218.285156 C 165.488281 219.976562 167.765625 221.5625 170.113281 223.046875 C 172.460938 224.53125 174.871094 225.910156 177.34375 227.179688 C 179.816406 228.445312 182.339844 229.601562 184.914062 230.644531 C 187.492188 231.683594 190.109375 232.609375 192.765625 233.414062 C 195.425781 234.21875 198.117188 234.90625 200.835938 235.46875 C 203.554688 236.03125 206.296875 236.472656 209.054688 236.789062 C 211.816406 237.109375 214.585938 237.300781 217.363281 237.371094 C 220.140625 237.4375 222.914062 237.382812 225.6875 237.199219 C 228.457031 237.019531 231.214844 236.714844 233.960938 236.285156 C 236.707031 235.855469 239.425781 235.304688 242.121094 234.628906 C 244.816406 233.953125 247.476562 233.160156 250.097656 232.246094 C 252.722656 231.335938 255.300781 230.304688 257.832031 229.160156 C 260.363281 228.015625 262.839844 226.757812 265.257812 225.390625 C 267.675781 224.023438 270.027344 222.546875 272.3125 220.96875 C 274.597656 219.390625 276.808594 217.710938 278.945312 215.933594 C 281.078125 214.152344 283.128906 212.285156 285.097656 210.320312 C 288.195312 207.25 291.054688 203.976562 293.683594 200.5 C 296.3125 197.023438 298.679688 193.375 300.785156 189.558594 C 302.894531 185.742188 304.71875 181.792969 306.261719 177.714844 C 307.804688 173.636719 309.050781 169.46875 309.996094 165.214844 L 299.574219 175.054688 C 298.410156 176.09375 297.082031 176.847656 295.59375 177.320312 C 294.105469 177.789062 292.585938 177.9375 291.035156 177.753906 C 290.21875 177.617188 289.425781 177.386719 288.65625 177.066406 C 287.890625 176.742188 287.171875 176.335938 286.5 175.847656 C 285.828125 175.355469 285.222656 174.796875 284.683594 174.164062 C 284.140625 173.535156 283.679688 172.847656 283.296875 172.109375 L 258.640625 124.328125 L 239.035156 156.667969 C 238.578125 157.4375 238.027344 158.132812 237.386719 158.757812 C 236.746094 159.382812 236.035156 159.917969 235.257812 160.359375 C 234.480469 160.800781 233.65625 161.136719 232.792969 161.367188 C 231.925781 161.59375 231.046875 161.707031 230.152344 161.707031 L 212.902344 161.707031 L 201.976562 174.261719 C 201.460938 174.871094 200.878906 175.414062 200.234375 175.890625 C 199.589844 176.363281 198.898438 176.757812 198.160156 177.066406 C 197.421875 177.378906 196.660156 177.597656 195.867188 177.726562 C 195.078125 177.855469 194.285156 177.890625 193.484375 177.832031 C 191.875 177.695312 190.371094 177.214844 188.980469 176.382812 C 187.589844 175.554688 186.453125 174.464844 185.566406 173.109375 L 159.132812 132.894531 L 139.933594 157.019531 C 138.953125 158.253906 137.753906 159.21875 136.335938 159.910156 C 134.921875 160.597656 133.421875 160.945312 131.847656 160.957031 Z M 128.402344 160.941406 " fill-opacity="1" fill-rule="nonzero"/><path fill="#000000" d="M 294.328125 159.949219 C 294.105469 159.949219 293.886719 159.929688 293.667969 159.890625 C 293.0625 159.785156 292.515625 159.554688 292.019531 159.191406 C 291.527344 158.832031 291.136719 158.378906 290.855469 157.835938 L 261.65625 101.269531 C 261.453125 100.832031 261.148438 100.476562 260.75 100.203125 C 260.351562 99.925781 259.910156 99.773438 259.425781 99.742188 C 258.949219 99.742188 258.507812 99.863281 258.101562 100.109375 C 257.691406 100.355469 257.378906 100.6875 257.152344 101.105469 L 229.925781 146.011719 C 229.570312 146.597656 229.097656 147.058594 228.503906 147.390625 C 227.910156 147.726562 227.269531 147.894531 226.589844 147.894531 L 208.246094 147.894531 C 207.476562 147.910156 206.84375 148.210938 206.34375 148.796875 L 197.851562 158.535156 C 197.449219 158.988281 196.964844 159.335938 196.402344 159.566406 C 195.839844 159.800781 195.257812 159.902344 194.648438 159.867188 C 194.039062 159.824219 193.472656 159.648438 192.949219 159.34375 C 192.421875 159.035156 191.992188 158.625 191.65625 158.117188 L 162.058594 113.054688 C 161.847656 112.710938 161.570312 112.433594 161.226562 112.226562 C 160.882812 112.019531 160.507812 111.90625 160.105469 111.882812 C 159.703125 111.863281 159.316406 111.941406 158.945312 112.109375 C 158.578125 112.277344 158.269531 112.519531 158.015625 112.835938 L 131.871094 145.632812 C 131.5 146.09375 131.046875 146.457031 130.515625 146.710938 C 129.980469 146.96875 129.414062 147.097656 128.824219 147.097656 L 123.074219 147.097656 C 122.816406 147.097656 122.5625 147.074219 122.308594 147.023438 C 122.054688 146.972656 121.808594 146.898438 121.570312 146.796875 C 121.332031 146.695312 121.105469 146.574219 120.890625 146.429688 C 120.675781 146.285156 120.480469 146.121094 120.296875 145.9375 C 120.117188 145.753906 119.953125 145.554688 119.8125 145.335938 C 119.671875 145.121094 119.550781 144.894531 119.457031 144.652344 C 119.359375 144.414062 119.285156 144.167969 119.238281 143.914062 C 119.191406 143.660156 119.167969 143.402344 119.171875 143.144531 C 119.210938 139.917969 119.402344 136.699219 119.753906 133.492188 C 120.101562 130.285156 120.605469 127.101562 121.265625 123.945312 C 121.925781 120.785156 122.734375 117.664062 123.695312 114.585938 C 124.65625 111.507812 125.765625 108.480469 127.019531 105.507812 C 128.277344 102.535156 129.671875 99.632812 131.210938 96.796875 C 132.75 93.960938 134.417969 91.203125 136.222656 88.53125 C 138.03125 85.855469 139.960938 83.277344 142.015625 80.789062 C 144.070312 78.304688 146.242188 75.921875 148.527344 73.648438 C 150.265625 71.910156 152.0625 70.238281 153.921875 68.632812 C 155.78125 67.027344 157.699219 65.492188 159.667969 64.027344 C 161.640625 62.5625 163.664062 61.171875 165.738281 59.855469 C 167.8125 58.539062 169.929688 57.300781 172.09375 56.136719 C 174.257812 54.976562 176.464844 53.898438 178.707031 52.898438 C 180.953125 51.898438 183.230469 50.980469 185.539062 50.148438 C 187.851562 49.316406 190.1875 48.570312 192.554688 47.910156 C 194.917969 47.25 197.304688 46.675781 199.714844 46.191406 C 202.121094 45.703125 204.542969 45.308594 206.980469 45 C 209.417969 44.691406 211.863281 44.472656 214.3125 44.34375 C 216.765625 44.214844 219.222656 44.175781 221.675781 44.230469 C 224.132812 44.28125 226.582031 44.421875 229.027344 44.652344 C 231.472656 44.882812 233.90625 45.203125 236.328125 45.613281 C 238.75 46.023438 241.152344 46.523438 243.539062 47.109375 C 245.921875 47.695312 248.285156 48.367188 250.621094 49.125 C 252.957031 49.886719 255.261719 50.730469 257.535156 51.65625 C 259.808594 52.585938 262.046875 53.597656 264.246094 54.6875 C 266.445312 55.78125 268.601562 56.953125 270.714844 58.203125 C 272.832031 59.453125 274.894531 60.78125 276.914062 62.183594 C 278.929688 63.585938 280.890625 65.058594 282.800781 66.605469 C 284.710938 68.152344 286.558594 69.765625 288.351562 71.449219 C 290.140625 73.132812 291.867188 74.875 293.53125 76.683594 C 295.191406 78.492188 296.785156 80.359375 298.3125 82.285156 C 299.835938 84.210938 301.289062 86.191406 302.671875 88.222656 C 304.050781 90.253906 305.355469 92.335938 306.585938 94.464844 C 307.8125 96.59375 308.960938 98.761719 310.03125 100.972656 C 311.101562 103.1875 312.085938 105.433594 312.992188 107.71875 C 313.894531 110.003906 314.714844 112.320312 315.449219 114.664062 C 316.183594 117.007812 316.832031 119.378906 317.394531 121.769531 C 317.953125 124.160156 318.425781 126.570312 318.8125 129 C 319.195312 131.425781 319.492188 133.863281 319.699219 136.3125 C 319.902344 138.761719 320.019531 141.214844 320.046875 143.671875 C 320.046875 143.929688 320.023438 144.183594 319.976562 144.4375 C 319.929688 144.691406 319.855469 144.9375 319.761719 145.175781 C 319.664062 145.417969 319.542969 145.644531 319.402344 145.859375 C 319.257812 146.074219 319.097656 146.273438 318.917969 146.457031 C 318.734375 146.640625 318.539062 146.804688 318.324219 146.949219 C 318.109375 147.09375 317.882812 147.214844 317.644531 147.3125 C 317.40625 147.414062 317.164062 147.488281 316.910156 147.539062 C 316.65625 147.589844 316.402344 147.613281 316.144531 147.613281 L 309.9375 147.613281 C 309.277344 147.621094 308.707031 147.855469 308.234375 148.316406 L 297 158.898438 C 296.246094 159.601562 295.355469 159.949219 294.328125 159.949219 Z M 259.402344 91.933594 L 259.730469 91.933594 C 260.65625 91.980469 261.5625 92.144531 262.449219 92.433594 C 263.332031 92.71875 264.164062 93.117188 264.941406 93.625 C 265.71875 94.132812 266.417969 94.730469 267.039062 95.421875 C 267.660156 96.117188 268.179688 96.875 268.597656 97.707031 L 295.414062 149.632812 L 302.890625 142.605469 C 303.84375 141.703125 304.929688 141.007812 306.144531 140.523438 C 307.363281 140.035156 308.628906 139.789062 309.9375 139.785156 L 312.121094 139.785156 C 312.042969 138.324219 311.933594 136.867188 311.785156 135.414062 C 311.640625 133.957031 311.460938 132.507812 311.246094 131.0625 C 311.03125 129.617188 310.785156 128.175781 310.5 126.742188 C 310.21875 125.304688 309.902344 123.878906 309.550781 122.460938 C 309.203125 121.039062 308.820312 119.628906 308.402344 118.226562 C 307.984375 116.828125 307.535156 115.4375 307.054688 114.054688 C 306.570312 112.675781 306.054688 111.308594 305.507812 109.953125 C 304.960938 108.597656 304.382812 107.253906 303.773438 105.925781 C 303.160156 104.597656 302.519531 103.285156 301.847656 101.984375 C 301.175781 100.6875 300.472656 99.40625 299.738281 98.140625 C 299.003906 96.878906 298.242188 95.628906 297.449219 94.402344 C 296.65625 93.171875 295.835938 91.964844 294.988281 90.773438 C 294.136719 89.585938 293.261719 88.414062 292.355469 87.265625 C 291.449219 86.121094 290.519531 84.992188 289.5625 83.890625 C 288.601562 82.785156 287.621094 81.703125 286.609375 80.648438 C 285.601562 79.589844 284.566406 78.554688 283.511719 77.546875 C 282.453125 76.539062 281.371094 75.554688 280.265625 74.597656 C 279.160156 73.640625 278.035156 72.710938 276.886719 71.804688 C 275.738281 70.902344 274.570312 70.027344 273.378906 69.175781 C 272.1875 68.328125 270.980469 67.507812 269.75 66.71875 C 268.523438 65.925781 267.273438 65.164062 266.011719 64.429688 C 264.746094 63.699219 263.464844 62.996094 262.164062 62.324219 C 260.867188 61.652344 259.554688 61.011719 258.226562 60.402344 C 256.898438 59.792969 255.554688 59.214844 254.199219 58.667969 C 252.84375 58.125 251.476562 57.609375 250.097656 57.128906 C 248.71875 56.648438 247.328125 56.199219 245.925781 55.785156 C 244.523438 55.367188 243.113281 54.984375 241.695312 54.636719 C 240.277344 54.289062 238.847656 53.972656 237.414062 53.691406 C 235.980469 53.410156 234.539062 53.164062 233.09375 52.953125 C 231.648438 52.738281 230.199219 52.558594 228.746094 52.414062 C 227.289062 52.273438 225.835938 52.160156 224.375 52.085938 C 222.914062 52.011719 221.453125 51.96875 219.992188 51.964844 C 218.53125 51.957031 217.070312 51.988281 215.613281 52.050781 C 214.152344 52.113281 212.695312 52.210938 211.238281 52.34375 C 209.78125 52.472656 208.332031 52.640625 206.882812 52.839844 C 205.4375 53.042969 203.996094 53.277344 202.558594 53.546875 C 201.121094 53.816406 199.691406 54.117188 198.269531 54.453125 C 196.847656 54.789062 195.433594 55.160156 194.03125 55.566406 C 192.625 55.96875 191.230469 56.40625 189.847656 56.875 C 188.464844 57.34375 187.089844 57.847656 185.730469 58.378906 C 184.371094 58.914062 183.023438 59.480469 181.691406 60.078125 C 180.355469 60.679688 179.039062 61.308594 177.734375 61.96875 C 176.429688 62.628906 175.144531 63.320312 173.875 64.042969 C 172.601562 64.765625 171.347656 65.515625 170.113281 66.296875 C 168.878906 67.078125 167.660156 67.886719 166.464844 68.726562 C 165.269531 69.5625 164.089844 70.429688 162.933594 71.324219 C 161.777344 72.21875 160.644531 73.140625 159.53125 74.089844 C 158.417969 75.035156 157.328125 76.011719 156.261719 77.011719 C 155.195312 78.011719 154.15625 79.035156 153.136719 80.082031 C 152.117188 81.132812 151.125 82.203125 150.160156 83.300781 C 149.191406 84.398438 148.25 85.515625 147.335938 86.65625 C 146.421875 87.796875 145.535156 88.957031 144.675781 90.140625 C 143.816406 91.324219 142.984375 92.523438 142.183594 93.746094 C 141.378906 94.96875 140.605469 96.207031 139.863281 97.46875 C 139.117188 98.726562 138.402344 100 137.71875 101.292969 C 137.035156 102.585938 136.382812 103.894531 135.761719 105.214844 C 135.140625 106.539062 134.550781 107.875 133.992188 109.226562 C 133.433594 110.578125 132.90625 111.941406 132.414062 113.316406 C 131.917969 114.695312 131.457031 116.082031 131.027344 117.480469 C 130.601562 118.878906 130.203125 120.285156 129.84375 121.699219 C 129.480469 123.117188 129.152344 124.542969 128.859375 125.972656 C 128.5625 127.40625 128.304688 128.84375 128.078125 130.289062 C 127.851562 131.734375 127.65625 133.183594 127.5 134.636719 C 127.34375 136.089844 127.21875 137.546875 127.128906 139.003906 L 151.910156 107.9375 C 152.164062 107.621094 152.433594 107.316406 152.722656 107.027344 C 153.011719 106.742188 153.316406 106.472656 153.636719 106.21875 C 153.957031 105.96875 154.292969 105.738281 154.640625 105.527344 C 154.988281 105.316406 155.347656 105.125 155.71875 104.957031 C 156.089844 104.789062 156.46875 104.644531 156.855469 104.519531 C 157.246094 104.394531 157.640625 104.296875 158.039062 104.21875 C 158.4375 104.144531 158.839844 104.09375 159.246094 104.0625 C 159.652344 104.035156 160.0625 104.03125 160.46875 104.050781 C 160.875 104.070312 161.277344 104.117188 161.679688 104.183594 C 162.082031 104.253906 162.476562 104.34375 162.867188 104.460938 C 163.257812 104.578125 163.640625 104.714844 164.011719 104.875 C 164.386719 105.039062 164.75 105.21875 165.101562 105.425781 C 165.453125 105.628906 165.792969 105.855469 166.121094 106.097656 C 166.445312 106.34375 166.753906 106.605469 167.046875 106.890625 C 167.34375 107.171875 167.617188 107.46875 167.878906 107.785156 C 168.136719 108.097656 168.375 108.425781 168.59375 108.769531 L 195.363281 149.527344 L 200.511719 143.625 C 201.488281 142.507812 202.65625 141.640625 204.007812 141.023438 C 205.355469 140.40625 206.773438 140.09375 208.257812 140.082031 L 224.375 140.082031 L 250.519531 97.015625 C 250.976562 96.242188 251.523438 95.539062 252.160156 94.910156 C 252.800781 94.28125 253.507812 93.742188 254.289062 93.296875 C 255.066406 92.851562 255.890625 92.511719 256.757812 92.28125 C 257.621094 92.050781 258.503906 91.933594 259.402344 91.933594 Z M 259.402344 91.933594 " fill-opacity="1" fill-rule="nonzero"/><path fill="#000000" d="M 118.515625 273.800781 C 118.300781 273.796875 118.085938 273.78125 117.875 273.746094 C 117.25 273.640625 116.6875 273.398438 116.183594 273.023438 C 115.679688 272.644531 115.289062 272.171875 115.011719 271.605469 C 114.585938 270.726562 114.027344 269.9375 113.34375 269.242188 L 95.148438 251.039062 C 94.449219 250.351562 93.660156 249.792969 92.777344 249.363281 C 92.5 249.226562 92.238281 249.058594 92 248.859375 C 91.761719 248.664062 91.550781 248.4375 91.363281 248.191406 C 91.179688 247.941406 91.023438 247.671875 90.902344 247.386719 C 90.78125 247.101562 90.695312 246.804688 90.640625 246.5 C 90.589844 246.195312 90.578125 245.886719 90.597656 245.574219 C 90.621094 245.265625 90.679688 244.960938 90.773438 244.667969 C 90.867188 244.371094 90.996094 244.089844 91.15625 243.824219 C 91.320312 243.558594 91.507812 243.316406 91.730469 243.097656 L 113.742188 221.074219 C 114.144531 220.679688 114.605469 220.386719 115.132812 220.1875 C 115.65625 219.992188 116.199219 219.90625 116.761719 219.9375 C 117.324219 219.972656 117.851562 220.125 118.347656 220.394531 C 118.84375 220.660156 119.265625 221.019531 119.605469 221.46875 C 126.320312 230.285156 134.085938 238.050781 142.898438 244.769531 C 143.117188 244.941406 143.320312 245.128906 143.5 245.34375 C 143.679688 245.554688 143.832031 245.78125 143.964844 246.027344 C 144.097656 246.273438 144.199219 246.527344 144.277344 246.792969 C 144.351562 247.0625 144.398438 247.335938 144.417969 247.609375 C 144.4375 247.886719 144.425781 248.164062 144.386719 248.4375 C 144.34375 248.714844 144.277344 248.980469 144.179688 249.242188 C 144.082031 249.5 143.957031 249.75 143.808594 249.980469 C 143.65625 250.214844 143.484375 250.429688 143.289062 250.628906 L 121.277344 272.652344 C 120.515625 273.414062 119.59375 273.796875 118.515625 273.800781 Z M 100.503906 245.355469 C 100.558594 245.40625 100.609375 245.457031 100.65625 245.507812 L 118.855469 263.71875 L 119.011719 263.878906 L 134.667969 248.214844 C 131.28125 245.445312 128.042969 242.511719 124.949219 239.414062 C 121.871094 236.339844 118.925781 233.078125 116.15625 229.691406 Z M 100.503906 245.355469 " fill-opacity="1" fill-rule="nonzero"/><path fill="#000000" d="M 35.433594 364.042969 C 33.128906 364.046875 30.851562 363.828125 28.59375 363.382812 C 26.335938 362.933594 24.144531 362.269531 22.019531 361.386719 C 19.894531 360.503906 17.875 359.421875 15.964844 358.136719 C 14.054688 356.851562 12.289062 355.394531 10.667969 353.757812 C 8.960938 352.0625 7.441406 350.210938 6.117188 348.203125 C 4.792969 346.191406 3.691406 344.066406 2.808594 341.828125 C 1.925781 339.589844 1.28125 337.28125 0.875 334.910156 C 0.472656 332.535156 0.316406 330.144531 0.410156 327.742188 C 0.496094 325.332031 0.824219 322.957031 1.398438 320.613281 C 1.972656 318.273438 2.773438 316.015625 3.808594 313.835938 C 4.84375 311.660156 6.089844 309.613281 7.542969 307.6875 C 8.996094 305.765625 10.632812 304.011719 12.445312 302.425781 L 78.605469 244.742188 C 79.195312 244.234375 79.820312 243.765625 80.480469 243.34375 C 81.136719 242.921875 81.820312 242.550781 82.535156 242.226562 C 83.246094 241.90625 83.976562 241.636719 84.726562 241.417969 C 85.476562 241.203125 86.242188 241.039062 87.015625 240.933594 C 87.789062 240.824219 88.566406 240.773438 89.347656 240.777344 C 90.128906 240.785156 90.90625 240.84375 91.679688 240.960938 C 92.449219 241.078125 93.210938 241.25 93.960938 241.476562 C 94.707031 241.703125 95.433594 241.984375 96.140625 242.316406 C 97.828125 243.125 99.332031 244.191406 100.65625 245.507812 L 118.855469 263.71875 C 120.164062 265.027344 121.21875 266.515625 122.023438 268.179688 C 122.359375 268.890625 122.640625 269.621094 122.871094 270.367188 C 123.101562 271.117188 123.273438 271.878906 123.394531 272.65625 C 123.511719 273.429688 123.578125 274.207031 123.582031 274.992188 C 123.589844 275.777344 123.542969 276.558594 123.4375 277.332031 C 123.332031 278.109375 123.171875 278.875 122.953125 279.628906 C 122.738281 280.382812 122.46875 281.117188 122.148438 281.832031 C 121.828125 282.546875 121.457031 283.234375 121.035156 283.894531 C 120.613281 284.554688 120.148438 285.183594 119.636719 285.777344 L 61.972656 351.976562 C 60.386719 353.792969 58.636719 355.425781 56.714844 356.882812 C 54.792969 358.335938 52.746094 359.582031 50.570312 360.617188 C 48.394531 361.65625 46.136719 362.460938 43.796875 363.03125 C 41.457031 363.605469 39.085938 363.9375 36.675781 364.023438 C 36.257812 364.035156 35.84375 364.042969 35.433594 364.042969 Z M 16.1875 348.253906 C 16.847656 348.914062 17.539062 349.539062 18.265625 350.128906 C 18.988281 350.71875 19.742188 351.265625 20.523438 351.78125 C 21.304688 352.292969 22.109375 352.761719 22.9375 353.191406 C 23.765625 353.621094 24.617188 354.007812 25.484375 354.347656 C 26.355469 354.691406 27.238281 354.988281 28.136719 355.238281 C 29.035156 355.492188 29.945312 355.695312 30.867188 355.855469 C 31.789062 356.011719 32.714844 356.121094 33.644531 356.1875 C 34.578125 356.25 35.507812 356.265625 36.441406 356.230469 C 37.375 356.199219 38.304688 356.121094 39.230469 355.992188 C 40.152344 355.863281 41.070312 355.6875 41.976562 355.46875 C 42.882812 355.246094 43.777344 354.976562 44.65625 354.664062 C 45.535156 354.351562 46.398438 353.992188 47.242188 353.589844 C 48.082031 353.1875 48.902344 352.746094 49.703125 352.257812 C 50.5 351.773438 51.269531 351.246094 52.011719 350.683594 C 52.757812 350.117188 53.46875 349.515625 54.152344 348.878906 C 54.832031 348.238281 55.480469 347.566406 56.09375 346.863281 L 113.746094 280.65625 C 114.277344 280.035156 114.707031 279.355469 115.042969 278.613281 C 115.375 277.871094 115.597656 277.09375 115.710938 276.285156 C 115.820312 275.480469 115.8125 274.671875 115.691406 273.867188 C 115.566406 273.058594 115.332031 272.289062 114.984375 271.550781 C 114.5625 270.691406 114.015625 269.921875 113.34375 269.242188 L 95.148438 251.039062 C 94.449219 250.351562 93.660156 249.792969 92.777344 249.363281 C 92.042969 249.023438 91.273438 248.792969 90.472656 248.675781 C 89.671875 248.554688 88.867188 248.554688 88.066406 248.667969 C 87.265625 248.777344 86.492188 249.003906 85.757812 249.339844 C 85.019531 249.671875 84.34375 250.105469 83.730469 250.636719 L 17.558594 308.3125 C 16.855469 308.925781 16.183594 309.574219 15.546875 310.257812 C 14.90625 310.941406 14.308594 311.652344 13.742188 312.398438 C 13.175781 313.140625 12.652344 313.914062 12.164062 314.710938 C 11.679688 315.511719 11.238281 316.332031 10.835938 317.175781 C 10.433594 318.019531 10.074219 318.882812 9.761719 319.761719 C 9.449219 320.640625 9.183594 321.535156 8.960938 322.445312 C 8.738281 323.351562 8.566406 324.269531 8.4375 325.195312 C 8.308594 326.121094 8.230469 327.050781 8.199219 327.984375 C 8.164062 328.917969 8.179688 329.851562 8.246094 330.785156 C 8.308594 331.714844 8.417969 332.644531 8.578125 333.5625 C 8.738281 334.484375 8.941406 335.394531 9.195312 336.296875 C 9.445312 337.195312 9.742188 338.082031 10.085938 338.949219 C 10.429688 339.820312 10.816406 340.667969 11.246094 341.5 C 11.675781 342.328125 12.144531 343.132812 12.65625 343.914062 C 13.171875 344.695312 13.722656 345.449219 14.3125 346.175781 C 14.902344 346.898438 15.527344 347.59375 16.1875 348.253906 Z M 16.1875 348.253906 " fill-opacity="1" fill-rule="nonzero"/><path fill="#000000" d="M 194.257812 177.863281 C 194.003906 177.863281 193.75 177.863281 193.476562 177.832031 C 191.867188 177.695312 190.363281 177.214844 188.972656 176.382812 C 187.582031 175.554688 186.445312 174.464844 185.558594 173.109375 L 159.125 132.894531 L 139.925781 157.019531 C 138.945312 158.253906 137.746094 159.21875 136.328125 159.910156 C 134.914062 160.597656 133.414062 160.945312 131.839844 160.957031 L 68.933594 160.957031 C 68.234375 160.933594 67.550781 160.84375 66.871094 160.6875 C 66.191406 160.53125 65.535156 160.3125 64.898438 160.03125 C 64.261719 159.75 63.65625 159.40625 63.085938 159.007812 C 62.515625 158.609375 61.988281 158.160156 61.503906 157.660156 C 61.019531 157.160156 60.585938 156.617188 60.207031 156.03125 C 59.828125 155.449219 59.507812 154.832031 59.246094 154.1875 C 58.984375 153.542969 58.789062 152.878906 58.65625 152.195312 C 58.523438 151.507812 58.457031 150.820312 58.457031 150.121094 C 58.457031 149.425781 58.523438 148.734375 58.65625 148.050781 C 58.789062 147.367188 58.984375 146.703125 59.246094 146.058594 C 59.507812 145.410156 59.828125 144.796875 60.207031 144.214844 C 60.585938 143.628906 61.019531 143.085938 61.503906 142.585938 C 61.988281 142.085938 62.515625 141.636719 63.085938 141.238281 C 63.65625 140.835938 64.261719 140.496094 64.898438 140.214844 C 65.535156 139.933594 66.191406 139.714844 66.871094 139.558594 C 67.550781 139.402344 68.234375 139.3125 68.933594 139.289062 L 126.925781 139.289062 L 151.898438 107.96875 C 152.152344 107.652344 152.421875 107.347656 152.710938 107.058594 C 153 106.773438 153.304688 106.503906 153.625 106.25 C 153.945312 106 154.28125 105.769531 154.628906 105.558594 C 154.976562 105.347656 155.335938 105.15625 155.707031 104.988281 C 156.078125 104.820312 156.457031 104.675781 156.84375 104.550781 C 157.234375 104.425781 157.628906 104.328125 158.027344 104.25 C 158.425781 104.175781 158.828125 104.125 159.234375 104.09375 C 159.640625 104.066406 160.050781 104.0625 160.457031 104.082031 C 160.863281 104.101562 161.265625 104.148438 161.667969 104.214844 C 162.070312 104.285156 162.464844 104.375 162.855469 104.492188 C 163.246094 104.609375 163.628906 104.746094 164.003906 104.90625 C 164.375 105.070312 164.738281 105.25 165.089844 105.457031 C 165.441406 105.660156 165.78125 105.886719 166.109375 106.128906 C 166.433594 106.375 166.742188 106.636719 167.035156 106.921875 C 167.332031 107.203125 167.605469 107.5 167.867188 107.816406 C 168.125 108.128906 168.363281 108.457031 168.582031 108.800781 L 195.363281 149.527344 L 200.511719 143.625 C 201.488281 142.507812 202.65625 141.640625 204.007812 141.023438 C 205.355469 140.40625 206.773438 140.09375 208.257812 140.082031 L 224.375 140.082031 L 250.519531 97.015625 C 251.003906 96.230469 251.582031 95.519531 252.25 94.882812 C 252.917969 94.246094 253.65625 93.707031 254.460938 93.261719 C 255.269531 92.816406 256.121094 92.484375 257.015625 92.257812 C 257.910156 92.035156 258.820312 91.929688 259.742188 91.941406 C 260.667969 91.988281 261.574219 92.152344 262.460938 92.441406 C 263.34375 92.726562 264.175781 93.125 264.953125 93.632812 C 265.730469 94.140625 266.429688 94.738281 267.050781 95.429688 C 267.671875 96.125 268.191406 96.882812 268.609375 97.714844 L 295.425781 149.640625 L 302.902344 142.613281 C 303.855469 141.710938 304.941406 141.015625 306.15625 140.53125 C 307.375 140.042969 308.640625 139.796875 309.949219 139.792969 L 364.535156 139.792969 C 365.234375 139.8125 365.921875 139.898438 366.605469 140.050781 C 367.285156 140.203125 367.949219 140.417969 368.589844 140.699219 C 369.226562 140.980469 369.835938 141.320312 370.410156 141.71875 C 370.984375 142.117188 371.515625 142.566406 372.003906 143.066406 C 372.488281 143.566406 372.925781 144.109375 373.308594 144.695312 C 373.691406 145.28125 374.011719 145.898438 374.277344 146.546875 C 374.539062 147.191406 374.738281 147.859375 374.871094 148.546875 C 375.003906 149.234375 375.070312 149.925781 375.070312 150.625 C 375.070312 151.324219 375.003906 152.015625 374.871094 152.703125 C 374.738281 153.386719 374.539062 154.054688 374.277344 154.703125 C 374.011719 155.351562 373.691406 155.96875 373.308594 156.550781 C 372.925781 157.136719 372.488281 157.679688 372.003906 158.183594 C 371.515625 158.683594 370.984375 159.132812 370.410156 159.53125 C 369.835938 159.929688 369.226562 160.269531 368.589844 160.546875 C 367.949219 160.828125 367.285156 161.046875 366.605469 161.199219 C 365.921875 161.351562 365.234375 161.4375 364.535156 161.453125 L 313.984375 161.453125 L 299.574219 175.058594 C 298.410156 176.097656 297.082031 176.851562 295.59375 177.324219 C 294.105469 177.792969 292.585938 177.941406 291.035156 177.757812 C 290.214844 177.621094 289.421875 177.390625 288.65625 177.066406 C 287.890625 176.746094 287.171875 176.339844 286.5 175.847656 C 285.828125 175.359375 285.222656 174.796875 284.683594 174.164062 C 284.140625 173.535156 283.679688 172.847656 283.296875 172.109375 L 258.640625 124.328125 L 239.035156 156.667969 C 238.578125 157.4375 238.027344 158.132812 237.386719 158.757812 C 236.746094 159.382812 236.035156 159.917969 235.257812 160.359375 C 234.480469 160.800781 233.65625 161.136719 232.792969 161.367188 C 231.925781 161.59375 231.046875 161.707031 230.152344 161.707031 L 212.902344 161.707031 L 201.976562 174.261719 C 201.015625 175.398438 199.863281 176.28125 198.515625 176.914062 C 197.164062 177.542969 195.746094 177.859375 194.257812 177.863281 Z M 159.441406 122.332031 L 159.617188 122.332031 C 160.242188 122.359375 160.828125 122.527344 161.371094 122.839844 C 161.914062 123.148438 162.359375 123.5625 162.703125 124.085938 L 192.089844 168.8125 C 192.308594 169.160156 192.59375 169.441406 192.941406 169.660156 C 193.292969 169.875 193.671875 170.003906 194.078125 170.042969 C 194.464844 170.058594 194.832031 169.988281 195.183594 169.832031 C 195.535156 169.675781 195.832031 169.449219 196.078125 169.148438 L 208.171875 155.238281 C 208.542969 154.816406 208.984375 154.484375 209.496094 154.253906 C 210.007812 154.019531 210.546875 153.902344 211.109375 153.898438 L 230.152344 153.898438 C 230.609375 153.894531 231.03125 153.777344 231.429688 153.546875 C 231.824219 153.316406 232.136719 153.003906 232.367188 152.613281 L 255.59375 114.324219 C 255.960938 113.71875 256.453125 113.25 257.074219 112.914062 C 257.695312 112.574219 258.359375 112.421875 259.066406 112.445312 C 259.769531 112.46875 260.421875 112.667969 261.019531 113.046875 C 261.613281 113.425781 262.074219 113.929688 262.398438 114.558594 L 290.242188 168.546875 C 290.421875 168.925781 290.679688 169.246094 291.011719 169.507812 C 291.34375 169.769531 291.714844 169.945312 292.128906 170.03125 C 292.011719 170 292.300781 170.03125 292.542969 170.03125 C 293.195312 170.035156 293.761719 169.8125 294.242188 169.363281 L 309.773438 154.703125 C 310.527344 153.996094 311.417969 153.640625 312.453125 153.636719 L 364.539062 153.636719 C 364.90625 153.59375 365.253906 153.484375 365.582031 153.308594 C 365.910156 153.136719 366.199219 152.910156 366.441406 152.632812 C 366.6875 152.355469 366.878906 152.042969 367.007812 151.695312 C 367.140625 151.347656 367.207031 150.988281 367.207031 150.617188 C 367.207031 150.246094 367.140625 149.886719 367.007812 149.539062 C 366.878906 149.191406 366.6875 148.878906 366.441406 148.601562 C 366.199219 148.324219 365.910156 148.097656 365.582031 147.921875 C 365.253906 147.75 364.90625 147.640625 364.539062 147.59375 L 309.9375 147.59375 C 309.277344 147.601562 308.707031 147.835938 308.234375 148.296875 L 297 158.898438 C 296.78125 159.105469 296.539062 159.285156 296.277344 159.433594 C 296.015625 159.585938 295.742188 159.707031 295.453125 159.792969 C 295.164062 159.878906 294.867188 159.933594 294.566406 159.953125 C 294.265625 159.96875 293.964844 159.953125 293.667969 159.902344 C 293.367188 159.851562 293.082031 159.769531 292.804688 159.652344 C 292.523438 159.53125 292.265625 159.382812 292.019531 159.207031 C 291.777344 159.027344 291.554688 158.824219 291.359375 158.59375 C 291.164062 158.363281 290.996094 158.117188 290.855469 157.847656 L 261.65625 101.269531 C 261.472656 100.824219 261.179688 100.460938 260.78125 100.1875 C 260.382812 99.910156 259.941406 99.761719 259.457031 99.746094 C 258.972656 99.730469 258.519531 99.84375 258.105469 100.09375 C 257.6875 100.339844 257.371094 100.679688 257.152344 101.113281 L 229.925781 146.011719 C 229.570312 146.597656 229.097656 147.058594 228.503906 147.390625 C 227.910156 147.726562 227.269531 147.894531 226.589844 147.894531 L 208.246094 147.894531 C 207.476562 147.910156 206.84375 148.210938 206.34375 148.796875 L 197.851562 158.535156 C 197.449219 158.988281 196.964844 159.335938 196.402344 159.566406 C 195.839844 159.800781 195.257812 159.902344 194.648438 159.867188 C 194.039062 159.824219 193.472656 159.648438 192.949219 159.34375 C 192.421875 159.035156 191.992188 158.625 191.65625 158.117188 L 162.058594 113.054688 C 161.847656 112.710938 161.570312 112.433594 161.226562 112.226562 C 160.882812 112.019531 160.507812 111.90625 160.105469 111.882812 C 159.703125 111.863281 159.316406 111.941406 158.945312 112.109375 C 158.578125 112.277344 158.269531 112.519531 158.015625 112.835938 L 131.871094 145.632812 C 131.5 146.09375 131.046875 146.457031 130.515625 146.710938 C 129.980469 146.96875 129.414062 147.097656 128.824219 147.097656 L 68.933594 147.097656 C 68.5625 147.144531 68.210938 147.25 67.882812 147.425781 C 67.550781 147.597656 67.265625 147.824219 67.015625 148.101562 C 66.769531 148.378906 66.578125 148.691406 66.449219 149.042969 C 66.316406 149.390625 66.25 149.75 66.25 150.121094 C 66.25 150.496094 66.316406 150.855469 66.449219 151.203125 C 66.578125 151.550781 66.769531 151.867188 67.015625 152.144531 C 67.265625 152.421875 67.550781 152.648438 67.882812 152.820312 C 68.210938 152.992188 68.5625 153.101562 68.933594 153.148438 L 131.855469 153.148438 C 132.683594 153.125 133.347656 152.789062 133.851562 152.132812 L 156.390625 123.816406 C 156.761719 123.351562 157.210938 122.984375 157.746094 122.726562 C 158.28125 122.464844 158.847656 122.332031 159.441406 122.332031 Z M 159.441406 122.332031 " fill-opacity="1" fill-rule="nonzero"/></svg>