<svg xmlns="http://www.w3.org/2000/svg" xmlns:xlink="http://www.w3.org/1999/xlink" width="500" zoomAndPan="magnify" viewBox="0 0 375 374.999991" height="500" preserveAspectRatio="xMidYMid meet" version="1.0"><path fill="#000000" d="M 187.507812 371.644531 C 176.488281 371.644531 167.523438 362.679688 167.523438 351.660156 C 167.523438 340.640625 176.488281 331.675781 187.507812 331.675781 C 198.527344 331.675781 207.492188 340.640625 207.492188 351.660156 C 207.492188 362.679688 198.527344 371.644531 187.507812 371.644531 Z M 187.507812 329.332031 C 175.195312 329.332031 165.179688 339.347656 165.179688 351.660156 C 165.179688 363.972656 175.195312 373.988281 187.507812 373.988281 C 199.820312 373.988281 209.835938 363.972656 209.835938 351.660156 C 209.835938 339.347656 199.820312 329.332031 187.507812 329.332031 Z M 187.507812 12.746094 C 193.363281 12.746094 198.125 17.507812 198.125 23.359375 C 198.125 29.214844 193.363281 33.976562 187.507812 33.976562 C 181.65625 33.976562 176.894531 29.214844 176.894531 23.359375 C 176.894531 17.507812 181.65625 12.746094 187.507812 12.746094 Z M 187.507812 36.320312 C 194.652344 36.320312 200.464844 30.503906 200.464844 23.359375 C 200.464844 16.214844 194.652344 10.402344 187.507812 10.402344 C 180.363281 10.402344 174.550781 16.214844 174.550781 23.359375 C 174.550781 30.503906 180.363281 36.320312 187.507812 36.320312 Z M 187.507812 3.375 C 198.527344 3.375 207.492188 12.339844 207.492188 23.359375 C 207.492188 34.382812 198.527344 43.347656 187.507812 43.347656 C 176.488281 43.347656 167.523438 34.382812 167.523438 23.359375 C 167.523438 12.339844 176.488281 3.375 187.507812 3.375 Z M 187.507812 45.6875 C 199.820312 45.6875 209.835938 35.671875 209.835938 23.359375 C 209.835938 11.046875 199.820312 1.03125 187.507812 1.03125 C 175.195312 1.03125 165.179688 11.046875 165.179688 23.359375 C 165.179688 35.671875 175.195312 45.6875 187.507812 45.6875 Z M 187.507812 176.894531 C 193.363281 176.894531 198.125 181.65625 198.125 187.511719 C 198.125 193.363281 193.363281 198.125 187.507812 198.125 C 181.65625 198.125 176.894531 193.363281 176.894531 187.511719 C 176.894531 181.65625 181.65625 176.894531 187.507812 176.894531 Z M 187.507812 200.46875 C 194.652344 200.46875 200.464844 194.65625 200.464844 187.511719 C 200.464844 180.367188 194.652344 174.554688 187.507812 174.554688 C 180.363281 174.554688 174.550781 180.367188 174.550781 187.511719 C 174.550781 194.65625 180.363281 200.46875 187.507812 200.46875 Z M 187.507812 167.527344 C 198.527344 167.527344 207.492188 176.488281 207.492188 187.511719 C 207.492188 198.53125 198.527344 207.496094 187.507812 207.496094 C 176.488281 207.496094 167.523438 198.53125 167.523438 187.511719 C 167.523438 176.488281 176.488281 167.527344 187.507812 167.527344 Z M 187.507812 209.839844 C 199.820312 209.839844 209.835938 199.820312 209.835938 187.511719 C 209.835938 175.199219 199.820312 165.183594 187.507812 165.183594 C 175.195312 165.183594 165.179688 175.199219 165.179688 187.511719 C 165.179688 199.820312 175.195312 209.839844 187.507812 209.839844 Z M 187.507812 280.207031 C 181.652344 280.207031 176.890625 275.445312 176.890625 269.589844 C 176.890625 263.738281 181.652344 258.976562 187.507812 258.976562 C 193.363281 258.976562 198.125 263.738281 198.125 269.589844 C 198.125 275.445312 193.363281 280.207031 187.507812 280.207031 Z M 187.507812 256.632812 C 180.363281 256.632812 174.550781 262.445312 174.550781 269.589844 C 174.550781 276.734375 180.363281 282.546875 187.507812 282.546875 C 194.652344 282.546875 200.464844 276.734375 200.464844 269.589844 C 200.464844 262.445312 194.652344 256.632812 187.507812 256.632812 Z M 187.507812 289.574219 C 176.488281 289.574219 167.523438 280.613281 167.523438 269.589844 C 167.523438 258.570312 176.488281 249.605469 187.507812 249.605469 C 198.527344 249.605469 207.492188 258.570312 207.492188 269.589844 C 207.492188 280.613281 198.527344 289.574219 187.507812 289.574219 Z M 187.507812 247.261719 C 175.195312 247.261719 165.179688 257.277344 165.179688 269.589844 C 165.179688 281.902344 175.195312 291.917969 187.507812 291.917969 C 199.820312 291.917969 209.835938 281.902344 209.835938 269.589844 C 209.835938 257.277344 199.820312 247.261719 187.507812 247.261719 Z M 258.589844 248.515625 C 247.570312 248.515625 238.601562 239.550781 238.601562 228.53125 C 238.601562 217.511719 247.570312 208.546875 258.589844 208.546875 C 269.609375 208.546875 278.574219 217.511719 278.574219 228.53125 C 278.574219 239.550781 269.609375 248.515625 258.589844 248.515625 Z M 258.589844 206.203125 C 246.277344 206.203125 236.261719 216.21875 236.261719 228.53125 C 236.261719 240.84375 246.277344 250.859375 258.589844 250.859375 C 270.902344 250.859375 280.917969 240.84375 280.917969 228.53125 C 280.917969 216.21875 270.902344 206.203125 258.589844 206.203125 Z M 116.429688 248.515625 C 105.40625 248.515625 96.441406 239.550781 96.441406 228.53125 C 96.441406 217.511719 105.40625 208.546875 116.429688 208.546875 C 127.445312 208.546875 136.414062 217.511719 136.414062 228.53125 C 136.414062 239.550781 127.445312 248.515625 116.429688 248.515625 Z M 116.429688 206.203125 C 104.117188 206.203125 94.101562 216.21875 94.101562 228.53125 C 94.101562 240.84375 104.117188 250.859375 116.429688 250.859375 C 128.738281 250.859375 138.753906 240.84375 138.753906 228.53125 C 138.753906 216.21875 128.738281 206.203125 116.429688 206.203125 Z M 258.589844 157.0625 C 252.734375 157.0625 247.972656 152.300781 247.972656 146.445312 C 247.972656 140.59375 252.734375 135.832031 258.589844 135.832031 C 264.441406 135.832031 269.203125 140.59375 269.203125 146.445312 C 269.203125 152.300781 264.441406 157.0625 258.589844 157.0625 Z M 258.589844 133.488281 C 251.445312 133.488281 245.628906 139.300781 245.628906 146.445312 C 245.628906 153.589844 251.445312 159.40625 258.589844 159.40625 C 265.734375 159.40625 271.546875 153.589844 271.546875 146.445312 C 271.546875 139.300781 265.734375 133.488281 258.589844 133.488281 Z M 258.589844 166.433594 C 247.570312 166.433594 238.601562 157.46875 238.601562 146.445312 C 238.601562 135.425781 247.570312 126.460938 258.589844 126.460938 C 269.609375 126.460938 278.574219 135.425781 278.574219 146.445312 C 278.574219 157.46875 269.609375 166.433594 258.589844 166.433594 Z M 258.589844 124.117188 C 246.277344 124.117188 236.261719 134.132812 236.261719 146.445312 C 236.261719 158.757812 246.277344 168.777344 258.589844 168.777344 C 270.902344 168.777344 280.917969 158.757812 280.917969 146.445312 C 280.917969 134.132812 270.902344 124.117188 258.589844 124.117188 Z M 116.429688 157.0625 C 110.574219 157.0625 105.8125 152.300781 105.8125 146.445312 C 105.8125 140.59375 110.574219 135.832031 116.429688 135.832031 C 122.28125 135.832031 127.042969 140.59375 127.042969 146.445312 C 127.042969 152.300781 122.28125 157.0625 116.429688 157.0625 Z M 116.429688 133.488281 C 109.28125 133.488281 103.46875 139.300781 103.46875 146.445312 C 103.46875 153.589844 109.28125 159.40625 116.429688 159.40625 C 123.574219 159.40625 129.386719 153.589844 129.386719 146.445312 C 129.386719 139.300781 123.574219 133.488281 116.429688 133.488281 Z M 116.429688 166.433594 C 105.40625 166.433594 96.441406 157.46875 96.441406 146.445312 C 96.441406 135.425781 105.40625 126.460938 116.429688 126.460938 C 127.445312 126.460938 136.414062 135.425781 136.414062 146.445312 C 136.414062 157.46875 127.445312 166.433594 116.429688 166.433594 Z M 116.429688 124.117188 C 104.117188 124.117188 94.101562 134.132812 94.101562 146.445312 C 94.101562 158.757812 104.117188 168.777344 116.429688 168.777344 C 128.738281 168.777344 138.753906 158.757812 138.753906 146.445312 C 138.753906 134.132812 128.738281 124.117188 116.429688 124.117188 Z M 258.589844 53.746094 C 264.441406 53.746094 269.203125 58.507812 269.203125 64.363281 C 269.203125 70.214844 264.441406 74.976562 258.589844 74.976562 C 252.734375 74.976562 247.972656 70.214844 247.972656 64.363281 C 247.972656 58.507812 252.734375 53.746094 258.589844 53.746094 Z M 258.589844 77.320312 C 265.734375 77.320312 271.546875 71.507812 271.546875 64.363281 C 271.546875 57.21875 265.734375 51.40625 258.589844 51.40625 C 251.445312 51.40625 245.628906 57.21875 245.628906 64.363281 C 245.628906 71.507812 251.445312 77.320312 258.589844 77.320312 Z M 258.589844 44.378906 C 269.609375 44.378906 278.574219 53.34375 278.574219 64.363281 C 278.574219 75.382812 269.609375 84.347656 258.589844 84.347656 C 247.570312 84.347656 238.601562 75.382812 238.601562 64.363281 C 238.601562 53.34375 247.570312 44.378906 258.589844 44.378906 Z M 258.589844 86.691406 C 270.902344 86.691406 280.917969 76.671875 280.917969 64.363281 C 280.917969 52.050781 270.902344 42.035156 258.589844 42.035156 C 246.277344 42.035156 236.261719 52.050781 236.261719 64.363281 C 236.261719 76.671875 246.277344 86.691406 258.589844 86.691406 Z M 116.429688 74.976562 C 110.574219 74.976562 105.8125 70.214844 105.8125 64.363281 C 105.8125 58.507812 110.574219 53.746094 116.429688 53.746094 C 122.28125 53.746094 127.042969 58.507812 127.042969 64.363281 C 127.042969 70.214844 122.28125 74.976562 116.429688 74.976562 Z M 116.429688 51.40625 C 109.28125 51.40625 103.46875 57.21875 103.46875 64.363281 C 103.46875 71.507812 109.28125 77.320312 116.429688 77.320312 C 123.574219 77.320312 129.386719 71.507812 129.386719 64.363281 C 129.386719 57.21875 123.574219 51.40625 116.429688 51.40625 Z M 116.429688 84.347656 C 105.40625 84.347656 96.441406 75.382812 96.441406 64.363281 C 96.441406 53.34375 105.40625 44.378906 116.429688 44.378906 C 127.445312 44.378906 136.414062 53.34375 136.414062 64.363281 C 136.414062 75.382812 127.445312 84.347656 116.429688 84.347656 Z M 116.429688 42.035156 C 104.117188 42.035156 94.101562 52.050781 94.101562 64.363281 C 94.101562 76.671875 104.117188 86.691406 116.429688 86.691406 C 128.738281 86.691406 138.753906 76.671875 138.753906 64.363281 C 138.753906 52.050781 128.738281 42.035156 116.429688 42.035156 " fill-opacity="1" fill-rule="nonzero"/><path fill="#000000" d="M 187.507812 289.574219 C 186.859375 289.574219 186.335938 290.101562 186.335938 290.746094 L 186.335938 330.503906 C 186.335938 331.148438 186.859375 331.675781 187.507812 331.675781 C 188.15625 331.675781 188.679688 331.148438 188.679688 330.503906 L 188.679688 290.746094 C 188.679688 290.101562 188.15625 289.574219 187.507812 289.574219 Z M 187.507812 207.496094 C 186.859375 207.496094 186.335938 208.019531 186.335938 208.667969 L 186.335938 248.433594 C 186.335938 249.082031 186.859375 249.605469 187.507812 249.605469 C 188.15625 249.605469 188.679688 249.082031 188.679688 248.433594 L 188.679688 208.667969 C 188.679688 208.019531 188.15625 207.496094 187.507812 207.496094 Z M 187.507812 43.347656 C 186.859375 43.347656 186.335938 43.871094 186.335938 44.519531 L 186.335938 166.355469 C 186.335938 167 186.859375 167.527344 187.507812 167.527344 C 188.15625 167.527344 188.679688 167 188.679688 166.355469 L 188.679688 44.519531 C 188.679688 43.871094 188.15625 43.347656 187.507812 43.347656 Z M 205.824219 178.097656 C 206.023438 178.097656 206.226562 178.046875 206.410156 177.9375 L 240.855469 158.042969 C 241.414062 157.71875 241.609375 157.003906 241.285156 156.441406 C 240.960938 155.882812 240.242188 155.691406 239.683594 156.015625 L 205.238281 175.910156 C 204.675781 176.234375 204.488281 176.949219 204.808594 177.511719 C 205.027344 177.886719 205.421875 178.097656 205.824219 178.097656 Z M 134.160156 158.042969 L 168.605469 177.9375 C 168.792969 178.046875 168.992188 178.097656 169.191406 178.097656 C 169.59375 178.097656 169.992188 177.886719 170.207031 177.511719 C 170.53125 176.949219 170.339844 176.234375 169.777344 175.910156 L 135.332031 156.015625 C 134.769531 155.691406 134.054688 155.882812 133.730469 156.441406 C 133.40625 157.003906 133.601562 157.71875 134.160156 158.042969 Z M 205.105469 199.316406 L 239.304688 219.609375 C 239.492188 219.722656 239.699219 219.773438 239.902344 219.773438 C 240.304688 219.773438 240.691406 219.570312 240.910156 219.199219 C 241.242188 218.644531 241.058594 217.925781 240.5 217.59375 L 206.296875 197.300781 C 205.746094 196.96875 205.023438 197.15625 204.695312 197.710938 C 204.363281 198.269531 204.546875 198.988281 205.105469 199.316406 Z M 168.71875 197.300781 L 134.515625 217.59375 C 133.957031 217.925781 133.773438 218.644531 134.105469 219.199219 C 134.324219 219.570312 134.714844 219.773438 135.113281 219.773438 C 135.316406 219.773438 135.523438 219.722656 135.710938 219.609375 L 169.914062 199.316406 C 170.46875 198.988281 170.652344 198.269531 170.320312 197.710938 C 169.992188 197.15625 169.273438 196.972656 168.71875 197.300781 Z M 205.25 34.945312 L 239.679688 54.808594 C 239.863281 54.914062 240.066406 54.960938 240.265625 54.960938 C 240.667969 54.960938 241.0625 54.753906 241.28125 54.378906 C 241.601562 53.816406 241.410156 53.101562 240.851562 52.777344 L 206.417969 32.917969 C 205.859375 32.59375 205.140625 32.785156 204.816406 33.34375 C 204.496094 33.90625 204.6875 34.621094 205.25 34.945312 Z M 134.753906 54.960938 C 134.949219 54.960938 135.152344 54.914062 135.335938 54.808594 L 169.769531 34.945312 C 170.328125 34.621094 170.519531 33.90625 170.199219 33.34375 C 169.875 32.785156 169.15625 32.59375 168.597656 32.917969 L 134.164062 52.777344 C 133.605469 53.101562 133.414062 53.816406 133.738281 54.378906 C 133.953125 54.753906 134.347656 54.960938 134.753906 54.960938 Z M 258.589844 84.347656 C 257.941406 84.347656 257.417969 84.871094 257.417969 85.519531 L 257.417969 125.289062 C 257.417969 125.9375 257.941406 126.460938 258.589844 126.460938 C 259.234375 126.460938 259.761719 125.9375 259.761719 125.289062 L 259.761719 85.519531 C 259.761719 84.871094 259.234375 84.347656 258.589844 84.347656 Z M 116.429688 84.347656 C 115.78125 84.347656 115.257812 84.871094 115.257812 85.519531 L 115.257812 125.289062 C 115.257812 125.9375 115.78125 126.460938 116.429688 126.460938 C 117.074219 126.460938 117.597656 125.9375 117.597656 125.289062 L 117.597656 85.519531 C 117.597656 84.871094 117.074219 84.347656 116.429688 84.347656 Z M 258.589844 166.433594 C 257.941406 166.433594 257.417969 166.957031 257.417969 167.605469 L 257.417969 207.375 C 257.417969 208.019531 257.941406 208.546875 258.589844 208.546875 C 259.234375 208.546875 259.761719 208.019531 259.761719 207.375 L 259.761719 167.605469 C 259.761719 166.957031 259.234375 166.433594 258.589844 166.433594 Z M 116.429688 166.433594 C 115.78125 166.433594 115.257812 166.957031 115.257812 167.605469 L 115.257812 207.375 C 115.257812 208.019531 115.78125 208.546875 116.429688 208.546875 C 117.074219 208.546875 117.597656 208.019531 117.597656 207.375 L 117.597656 167.605469 C 117.597656 166.957031 117.074219 166.433594 116.429688 166.433594 Z M 128.019531 246.269531 C 127.699219 245.710938 126.980469 245.515625 126.421875 245.84375 C 125.859375 246.164062 125.667969 246.882812 125.992188 247.441406 L 175.917969 333.921875 C 176.132812 334.296875 176.527344 334.507812 176.933594 334.507812 C 177.132812 334.507812 177.332031 334.457031 177.519531 334.351562 C 178.078125 334.027344 178.269531 333.3125 177.945312 332.75 Z M 249.023438 247.441406 L 199.097656 333.925781 C 198.882812 334.300781 198.488281 334.511719 198.082031 334.511719 C 197.882812 334.511719 197.683594 334.460938 197.5 334.355469 C 196.941406 334.03125 196.746094 333.3125 197.070312 332.753906 L 246.996094 246.269531 C 247.320312 245.710938 248.035156 245.519531 248.59375 245.84375 C 249.15625 246.164062 249.347656 246.882812 249.023438 247.441406 " fill-opacity="1" fill-rule="nonzero"/><path fill="#000000" d="M 206.917969 145.273438 L 201.371094 145.273438 C 200.726562 145.273438 200.199219 145.800781 200.199219 146.445312 C 200.199219 147.09375 200.726562 147.617188 201.371094 147.617188 L 206.917969 147.617188 C 207.566406 147.617188 208.089844 147.09375 208.089844 146.445312 C 208.089844 145.800781 207.566406 145.273438 206.917969 145.273438 Z M 218.007812 145.273438 L 212.460938 145.273438 C 211.816406 145.273438 211.292969 145.800781 211.292969 146.445312 C 211.292969 147.09375 211.816406 147.617188 212.460938 147.617188 L 218.007812 147.617188 C 218.65625 147.617188 219.179688 147.09375 219.179688 146.445312 C 219.179688 145.800781 218.65625 145.273438 218.007812 145.273438 Z M 229.097656 145.273438 L 223.554688 145.273438 C 222.90625 145.273438 222.382812 145.800781 222.382812 146.445312 C 222.382812 147.09375 222.90625 147.617188 223.554688 147.617188 L 229.097656 147.617188 C 229.746094 147.617188 230.269531 147.09375 230.269531 146.445312 C 230.269531 145.800781 229.746094 145.273438 229.097656 145.273438 Z M 195.828125 145.273438 L 190.28125 145.273438 C 189.632812 145.273438 189.109375 145.800781 189.109375 146.445312 C 189.109375 147.09375 189.632812 147.617188 190.28125 147.617188 L 195.828125 147.617188 C 196.476562 147.617188 196.996094 147.09375 196.996094 146.445312 C 196.996094 145.800781 196.476562 145.273438 195.828125 145.273438 Z M 151.460938 145.273438 L 145.917969 145.273438 C 145.269531 145.273438 144.746094 145.800781 144.746094 146.445312 C 144.746094 147.09375 145.269531 147.617188 145.917969 147.617188 L 151.460938 147.617188 C 152.109375 147.617188 152.632812 147.09375 152.632812 146.445312 C 152.632812 145.800781 152.109375 145.273438 151.460938 145.273438 Z M 162.554688 145.273438 L 157.007812 145.273438 C 156.363281 145.273438 155.835938 145.800781 155.835938 146.445312 C 155.835938 147.09375 156.363281 147.617188 157.007812 147.617188 L 162.554688 147.617188 C 163.199219 147.617188 163.722656 147.09375 163.722656 146.445312 C 163.722656 145.800781 163.199219 145.273438 162.554688 145.273438 Z M 173.644531 145.273438 L 168.097656 145.273438 C 167.453125 145.273438 166.925781 145.800781 166.925781 146.445312 C 166.925781 147.09375 167.453125 147.617188 168.097656 147.617188 L 173.644531 147.617188 C 174.292969 147.617188 174.816406 147.09375 174.816406 146.445312 C 174.816406 145.800781 174.292969 145.273438 173.644531 145.273438 Z M 185.90625 146.445312 C 185.90625 147.09375 185.382812 147.617188 184.734375 147.617188 L 179.191406 147.617188 C 178.542969 147.617188 178.019531 147.09375 178.019531 146.445312 C 178.019531 145.800781 178.542969 145.273438 179.191406 145.273438 L 184.734375 145.273438 C 185.382812 145.273438 185.90625 145.800781 185.90625 146.445312 " fill-opacity="1" fill-rule="nonzero"/><path fill="#000000" d="M 187.507812 372.675781 C 85.40625 372.675781 2.34375 289.609375 2.34375 187.511719 C 2.34375 85.410156 85.40625 2.34375 187.507812 2.34375 C 289.609375 2.34375 372.675781 85.410156 372.675781 187.511719 C 372.675781 289.609375 289.609375 372.675781 187.507812 372.675781 Z M 360.28125 114.523438 C 350.835938 92.195312 337.316406 72.140625 320.097656 54.921875 C 302.878906 37.703125 282.824219 24.179688 260.496094 14.738281 C 237.378906 4.960938 212.820312 0 187.507812 0 C 162.195312 0 137.640625 4.960938 114.519531 14.738281 C 92.191406 24.179688 72.140625 37.703125 54.921875 54.921875 C 37.699219 72.140625 24.179688 92.195312 14.734375 114.523438 C 4.957031 137.640625 0 162.199219 0 187.511719 C 0 212.824219 4.957031 237.378906 14.734375 260.496094 C 24.179688 282.824219 37.699219 302.878906 54.921875 320.097656 C 72.140625 337.320312 92.191406 350.835938 114.519531 360.28125 C 137.640625 370.0625 162.195312 375.019531 187.507812 375.019531 C 212.820312 375.019531 237.378906 370.0625 260.496094 360.28125 C 282.824219 350.835938 302.878906 337.320312 320.097656 320.097656 C 337.316406 302.878906 350.835938 282.824219 360.28125 260.496094 C 370.058594 237.378906 375.015625 212.824219 375.015625 187.511719 C 375.015625 162.199219 370.058594 137.640625 360.28125 114.523438 " fill-opacity="1" fill-rule="nonzero"/><path fill="#000000" d="M 229.953125 29.753906 C 231.730469 30.230469 233.53125 30.746094 235.296875 31.285156 L 235.980469 29.042969 C 234.191406 28.496094 232.367188 27.976562 230.558594 27.492188 Z M 148.394531 348.535156 C 150.207031 348.976562 152.0625 349.386719 153.898438 349.769531 L 154.371094 347.472656 C 152.558594 347.101562 150.734375 346.691406 148.945312 346.257812 Z M 229.074219 345.5 L 229.667969 347.765625 C 231.492188 347.289062 233.316406 346.773438 235.101562 346.242188 L 234.429688 344 C 232.667969 344.523438 230.871094 345.03125 229.074219 345.5 Z M 239.726562 342.3125 L 240.476562 344.53125 C 242.253906 343.929688 244.042969 343.292969 245.789062 342.636719 L 244.964844 340.445312 C 243.242188 341.09375 241.480469 341.71875 239.726562 342.3125 Z M 240.605469 33.007812 C 242.351562 33.609375 244.117188 34.246094 245.847656 34.910156 L 246.683594 32.722656 C 244.925781 32.050781 243.140625 31.402344 241.367188 30.792969 Z M 261.128906 41.675781 C 262.773438 42.511719 264.433594 43.386719 266.054688 44.277344 L 267.183594 42.222656 C 265.539062 41.320312 263.855469 40.429688 262.183594 39.585938 Z M 260.207031 333.804688 L 261.25 335.902344 C 262.914062 335.074219 264.597656 334.203125 266.246094 333.308594 L 265.128906 331.25 C 263.503906 332.128906 261.847656 332.988281 260.207031 333.804688 Z M 251.015625 36.992188 C 252.71875 37.710938 254.433594 38.46875 256.113281 39.246094 L 257.097656 37.121094 C 255.394531 36.332031 253.65625 35.5625 251.929688 34.832031 Z M 269.964844 328.523438 L 271.152344 330.546875 C 272.769531 329.597656 274.386719 328.613281 275.960938 327.617188 L 274.707031 325.636719 C 273.15625 326.621094 271.558594 327.589844 269.964844 328.523438 Z M 218.230469 347.953125 L 218.667969 350.253906 C 220.503906 349.90625 222.363281 349.519531 224.191406 349.105469 L 223.675781 346.820312 C 221.871094 347.226562 220.039062 347.609375 218.230469 347.953125 Z M 250.117188 338.40625 L 251.015625 340.570312 C 252.742188 339.851562 254.476562 339.097656 256.171875 338.324219 L 255.199219 336.191406 C 253.527344 336.953125 251.816406 337.699219 250.117188 338.40625 Z M 174.667969 22.332031 L 174.847656 24.667969 C 176.683594 24.527344 178.554688 24.414062 180.398438 24.335938 L 180.296875 21.996094 C 178.425781 22.074219 176.53125 22.1875 174.667969 22.332031 Z M 170.617188 352.328125 C 172.480469 352.519531 174.375 352.675781 176.238281 352.800781 L 176.394531 350.464844 C 174.558594 350.339844 172.691406 350.183594 170.855469 349.996094 Z M 163.457031 23.574219 L 163.796875 25.894531 C 165.617188 25.628906 167.472656 25.390625 169.3125 25.1875 L 169.054688 22.855469 C 167.1875 23.066406 165.304688 23.304688 163.457031 23.574219 Z M 152.359375 25.578125 L 152.855469 27.867188 C 154.65625 27.476562 156.492188 27.113281 158.308594 26.785156 L 157.894531 24.480469 C 156.050781 24.8125 154.1875 25.183594 152.359375 25.578125 Z M 208.144531 25.472656 C 209.976562 25.707031 211.828125 25.972656 213.648438 26.265625 L 214.019531 23.949219 C 212.171875 23.65625 210.296875 23.382812 208.4375 23.148438 Z M 159.441406 350.8125 C 161.285156 351.125 163.160156 351.414062 165.019531 351.667969 L 165.332031 349.34375 C 163.503906 349.09375 161.652344 348.8125 159.835938 348.503906 Z M 197.070312 24.457031 C 198.917969 24.566406 200.785156 24.703125 202.617188 24.875 L 202.832031 22.539062 C 200.972656 22.371094 199.082031 22.230469 197.203125 22.121094 Z M 187.507812 350.835938 C 185.65625 350.835938 183.785156 350.804688 181.949219 350.746094 L 181.871094 353.085938 C 183.734375 353.148438 185.632812 353.179688 187.507812 353.179688 C 188.558594 353.179688 189.605469 353.167969 190.648438 353.152344 L 190.605469 350.808594 C 189.574219 350.828125 188.542969 350.835938 187.507812 350.835938 Z M 207.242188 349.65625 L 207.523438 351.984375 C 209.382812 351.757812 211.261719 351.5 213.109375 351.214844 L 212.75 348.898438 C 210.929688 349.179688 209.078125 349.4375 207.242188 349.65625 Z M 185.929688 21.847656 L 185.953125 24.191406 C 187.800781 24.175781 189.667969 24.1875 191.515625 24.230469 L 191.570312 21.890625 C 189.699219 21.84375 187.800781 21.832031 185.929688 21.847656 Z M 196.164062 350.613281 L 196.285156 352.953125 C 198.152344 352.855469 200.046875 352.722656 201.914062 352.5625 L 201.710938 350.226562 C 199.871094 350.386719 198.003906 350.515625 196.164062 350.613281 Z M 219.121094 27.238281 C 220.933594 27.597656 222.761719 27.988281 224.558594 28.402344 L 225.089844 26.121094 C 223.265625 25.699219 221.410156 25.300781 219.574219 24.941406 Z M 319.828125 91.746094 C 320.910156 93.238281 321.980469 94.765625 323.015625 96.296875 L 324.957031 94.988281 C 323.90625 93.4375 322.820312 91.882812 321.726562 90.371094 Z M 336.089844 255.421875 L 338.222656 256.398438 C 339.003906 254.691406 339.765625 252.945312 340.488281 251.214844 L 338.324219 250.316406 C 337.613281 252.019531 336.859375 253.738281 336.089844 255.421875 Z M 340.378906 245.132812 L 342.570312 245.960938 C 343.230469 244.207031 343.875 242.417969 344.476562 240.632812 L 342.257812 239.882812 C 341.660156 241.640625 341.03125 243.40625 340.378906 245.132812 Z M 325.460938 274.984375 L 327.4375 276.238281 C 328.445312 274.65625 329.433594 273.035156 330.386719 271.421875 L 328.367188 270.234375 C 327.429688 271.824219 326.449219 273.421875 325.460938 274.984375 Z M 326.039062 100.953125 C 327.015625 102.515625 327.980469 104.113281 328.90625 105.707031 L 330.929688 104.535156 C 329.996094 102.917969 329.015625 101.292969 328.023438 99.710938 Z M 331.109375 265.386719 L 333.164062 266.503906 C 334.0625 264.855469 334.941406 263.171875 335.78125 261.496094 L 333.6875 260.445312 C 332.859375 262.101562 331.992188 263.761719 331.109375 265.386719 Z M 350.214844 201.855469 L 352.546875 202.058594 C 352.707031 200.199219 352.839844 198.308594 352.941406 196.433594 L 350.601562 196.308594 C 350.503906 198.160156 350.371094 200.023438 350.214844 201.855469 Z M 353.160156 185.15625 L 350.816406 185.191406 C 350.832031 185.960938 350.835938 186.738281 350.835938 187.511719 C 350.835938 188.597656 350.824219 189.6875 350.804688 190.75 L 353.144531 190.796875 C 353.167969 189.71875 353.175781 188.609375 353.175781 187.511719 C 353.175781 186.726562 353.171875 185.941406 353.160156 185.15625 Z M 346.785156 223.816406 L 349.070312 224.335938 C 349.484375 222.515625 349.875 220.65625 350.226562 218.8125 L 347.925781 218.371094 C 347.578125 220.191406 347.195312 222.023438 346.785156 223.816406 Z M 348.875 212.894531 L 351.1875 213.253906 C 351.476562 211.40625 351.738281 209.523438 351.964844 207.667969 L 349.640625 207.386719 C 349.414062 209.214844 349.160156 211.070312 348.875 212.894531 Z M 343.953125 234.566406 L 346.199219 235.242188 C 346.738281 233.449219 347.25 231.625 347.726562 229.8125 L 345.460938 229.214844 C 344.992188 231.003906 344.484375 232.804688 343.953125 234.566406 Z M 313.007812 82.980469 C 314.1875 84.394531 315.359375 85.851562 316.492188 87.304688 L 318.339844 85.867188 C 317.195312 84.390625 316.003906 82.914062 314.808594 81.476562 Z M 288.3125 316.027344 L 289.761719 317.867188 C 291.230469 316.714844 292.703125 315.515625 294.132812 314.3125 L 292.625 312.519531 C 291.214844 313.707031 289.761719 314.886719 288.3125 316.027344 Z M 296.816406 308.871094 L 298.382812 310.609375 C 299.777344 309.351562 301.164062 308.058594 302.507812 306.765625 L 300.882812 305.078125 C 299.558594 306.355469 298.191406 307.628906 296.816406 308.871094 Z M 289.191406 59.691406 C 290.636719 60.839844 292.082031 62.03125 293.484375 63.230469 L 295.003906 61.445312 C 293.582031 60.234375 292.117188 59.027344 290.652344 57.859375 Z M 280.257812 53.054688 C 281.777344 54.105469 283.296875 55.195312 284.78125 56.296875 L 286.175781 54.414062 C 284.675781 53.300781 283.128906 52.195312 281.589844 51.128906 Z M 279.347656 322.585938 L 280.667969 324.523438 C 282.210938 323.472656 283.757812 322.378906 285.269531 321.273438 L 283.886719 319.382812 C 282.394531 320.472656 280.871094 321.550781 279.347656 322.585938 Z M 319.175781 284.167969 L 321.0625 285.558594 C 322.175781 284.046875 323.273438 282.496094 324.328125 280.953125 L 322.394531 279.628906 C 321.355469 281.152344 320.269531 282.679688 319.175781 284.167969 Z M 312.28125 292.90625 L 314.070312 294.417969 C 315.28125 292.988281 316.480469 291.515625 317.644531 290.046875 L 315.804688 288.597656 C 314.660156 290.046875 313.472656 291.496094 312.28125 292.90625 Z M 270.886719 47.039062 C 272.476562 47.984375 274.074219 48.972656 275.625 49.96875 L 276.890625 47.996094 C 275.316406 46.984375 273.699219 45.984375 272.085938 45.027344 Z M 304.820312 301.148438 L 306.5 302.78125 C 307.800781 301.4375 309.097656 300.054688 310.355469 298.664062 L 308.621094 297.09375 C 307.378906 298.460938 306.101562 299.828125 304.820312 301.148438 Z M 297.652344 66.910156 C 299.019531 68.160156 300.378906 69.445312 301.695312 70.734375 L 303.332031 69.058594 C 302 67.75 300.617188 66.449219 299.234375 65.183594 Z M 305.605469 74.6875 C 306.875 76.019531 308.144531 77.390625 309.375 78.769531 L 311.125 77.210938 C 309.875 75.8125 308.585938 74.417969 307.296875 73.066406 Z M 44.648438 108.289062 L 42.601562 107.148438 C 41.691406 108.789062 40.796875 110.464844 39.941406 112.132812 L 42.027344 113.203125 C 42.871094 111.554688 43.75 109.902344 44.648438 108.289062 Z M 39.574219 118.203125 L 37.453125 117.207031 C 36.652344 118.910156 35.875 120.644531 35.140625 122.367188 L 37.292969 123.289062 C 38.019531 121.589844 38.785156 119.878906 39.574219 118.203125 Z M 35.1875 128.449219 L 33.003906 127.601562 C 32.320312 129.355469 31.664062 131.140625 31.046875 132.910156 L 33.257812 133.683594 C 33.867188 131.9375 34.515625 130.179688 35.1875 128.449219 Z M 56.757812 89.617188 L 54.882812 88.210938 C 53.761719 89.710938 52.644531 91.25 51.574219 92.785156 L 53.496094 94.125 C 54.554688 92.613281 55.648438 91.09375 56.757812 89.617188 Z M 50.386719 98.742188 L 48.421875 97.46875 C 47.402344 99.039062 46.394531 100.652344 45.429688 102.257812 L 47.433594 103.464844 C 48.390625 101.882812 49.378906 100.292969 50.386719 98.742188 Z M 28.578125 149.707031 L 26.300781 149.164062 C 25.867188 150.984375 25.460938 152.839844 25.09375 154.675781 L 27.390625 155.136719 C 27.753906 153.328125 28.152344 151.5 28.578125 149.707031 Z M 24.941406 171.628906 L 22.613281 171.40625 C 22.433594 173.269531 22.28125 175.160156 22.164062 177.027344 L 24.503906 177.175781 C 24.617188 175.332031 24.765625 173.464844 24.941406 171.628906 Z M 24.179688 187.511719 C 24.179688 185.917969 24.207031 184.308594 24.25 182.726562 L 21.910156 182.660156 C 21.863281 184.265625 21.839844 185.894531 21.839844 187.511719 L 21.839844 188.300781 L 24.183594 188.289062 Z M 26.386719 160.605469 L 24.074219 160.222656 C 23.769531 162.0625 23.492188 163.941406 23.25 165.800781 L 25.574219 166.105469 C 25.8125 164.269531 26.085938 162.421875 26.386719 160.605469 Z M 63.730469 80.945312 L 61.957031 79.417969 C 60.734375 80.835938 59.519531 82.296875 58.34375 83.753906 L 60.171875 85.222656 C 61.324219 83.785156 62.523438 82.347656 63.730469 80.945312 Z M 31.511719 138.980469 L 29.273438 138.285156 C 28.71875 140.070312 28.1875 141.890625 27.695312 143.699219 L 29.953125 144.316406 C 30.441406 142.535156 30.964844 140.738281 31.511719 138.980469 Z M 345.695312 146.695312 L 347.960938 146.113281 C 347.496094 144.304688 346.996094 142.476562 346.464844 140.675781 L 344.214844 141.335938 C 344.738281 143.113281 345.234375 144.914062 345.695312 146.695312 Z M 348.09375 157.554688 L 350.398438 157.125 C 350.054688 155.289062 349.679688 153.429688 349.273438 151.597656 L 346.988281 152.105469 C 347.386719 153.910156 347.757812 155.742188 348.09375 157.554688 Z M 342.554688 136.027344 L 344.78125 135.292969 C 344.191406 133.511719 343.5625 131.722656 342.910156 129.96875 L 340.714844 130.785156 C 341.355469 132.511719 341.972656 134.277344 342.554688 136.027344 Z M 24.300781 193.847656 L 21.960938 193.9375 C 22.03125 195.808594 22.136719 197.703125 22.269531 199.566406 L 24.609375 199.398438 C 24.472656 197.5625 24.371094 195.691406 24.300781 193.847656 Z M 349.746094 168.546875 L 352.074219 168.28125 C 351.859375 166.421875 351.609375 164.542969 351.328125 162.6875 L 349.011719 163.035156 C 349.289062 164.863281 349.535156 166.71875 349.746094 168.546875 Z M 350.648438 179.628906 L 352.988281 179.519531 C 352.898438 177.65625 352.78125 175.761719 352.625 173.890625 L 350.289062 174.082031 C 350.441406 175.925781 350.5625 177.792969 350.648438 179.628906 Z M 336.246094 114.457031 C 335.417969 112.78125 334.554688 111.097656 333.671875 109.453125 L 331.605469 110.558594 C 332.476562 112.179688 333.328125 113.839844 334.140625 115.492188 Z M 87.914062 58.050781 L 86.484375 56.195312 C 85.003906 57.339844 83.519531 58.523438 82.078125 59.710938 L 83.570312 61.519531 C 84.992188 60.34375 86.453125 59.179688 87.914062 58.050781 Z M 79.34375 65.128906 L 77.792969 63.375 C 76.390625 64.613281 74.992188 65.894531 73.632812 67.179688 L 75.246094 68.882812 C 76.585938 67.613281 77.960938 66.351562 79.34375 65.128906 Z M 71.273438 72.773438 L 69.605469 71.125 C 68.289062 72.457031 66.980469 73.832031 65.710938 75.207031 L 67.433594 76.796875 C 68.683594 75.441406 69.976562 74.085938 71.273438 72.773438 Z M 340.863281 124.714844 C 340.15625 122.992188 339.410156 121.257812 338.640625 119.546875 L 336.503906 120.507812 C 337.261719 122.191406 338 123.90625 338.695312 125.601562 Z M 96.9375 51.574219 L 95.636719 49.628906 C 94.082031 50.664062 92.527344 51.742188 91.003906 52.835938 L 92.371094 54.734375 C 93.871094 53.660156 95.40625 52.597656 96.9375 51.574219 Z M 100.375 46.582031 L 101.609375 48.570312 C 103.171875 47.601562 104.777344 46.648438 106.375 45.726562 L 105.210938 43.695312 C 103.585938 44.628906 101.960938 45.597656 100.375 46.582031 Z M 106.460938 332.03125 C 108.09375 332.953125 109.769531 333.855469 111.429688 334.71875 L 112.507812 332.636719 C 110.871094 331.789062 109.222656 330.898438 107.605469 329.992188 Z M 141.425781 28.335938 L 142.074219 30.585938 C 143.847656 30.074219 145.652344 29.585938 147.441406 29.132812 L 146.867188 26.863281 C 145.054688 27.320312 143.222656 27.816406 141.425781 28.335938 Z M 110.140625 40.980469 L 111.234375 43.050781 C 112.863281 42.1875 114.527344 41.34375 116.183594 40.539062 L 115.15625 38.433594 C 113.480469 39.25 111.789062 40.105469 110.140625 40.980469 Z M 96.808594 326.167969 C 98.363281 327.1875 99.972656 328.203125 101.582031 329.183594 L 102.800781 327.179688 C 101.210938 326.214844 99.628906 325.214844 98.09375 324.207031 Z M 87.582031 319.660156 C 89.074219 320.792969 90.609375 321.914062 92.136719 322.992188 L 93.488281 321.078125 C 91.980469 320.011719 90.46875 318.910156 88.996094 317.792969 Z M 120.261719 36.058594 L 121.210938 38.199219 C 122.890625 37.453125 124.605469 36.726562 126.3125 36.035156 L 125.4375 33.859375 C 123.703125 34.5625 121.960938 35.300781 120.261719 36.058594 Z M 137.53125 345.507812 C 139.3125 346.070312 141.132812 346.613281 142.9375 347.113281 L 143.566406 344.859375 C 141.785156 344.363281 139.992188 343.828125 138.234375 343.273438 Z M 130.703125 31.835938 L 131.503906 34.039062 C 133.238281 33.40625 135.007812 32.792969 136.757812 32.222656 L 136.03125 29.996094 C 134.253906 30.574219 132.460938 31.195312 130.703125 31.835938 Z M 78.820312 312.546875 C 80.230469 313.773438 81.683594 314.996094 83.140625 316.179688 L 84.617188 314.359375 C 83.179688 313.195312 81.746094 311.988281 80.359375 310.78125 Z M 25.101562 204.9375 L 22.769531 205.1875 C 22.96875 207.050781 23.199219 208.933594 23.460938 210.78125 L 25.78125 210.457031 C 25.523438 208.632812 25.296875 206.777344 25.101562 204.9375 Z M 126.867188 341.730469 C 128.609375 342.414062 130.390625 343.082031 132.164062 343.710938 L 132.945312 341.5 C 131.199219 340.882812 129.441406 340.226562 127.722656 339.550781 Z M 116.492188 337.230469 C 118.1875 338.035156 119.917969 338.820312 121.640625 339.566406 L 122.570312 337.417969 C 120.875 336.679688 119.167969 335.90625 117.5 335.113281 Z M 38.089844 259.152344 C 38.894531 260.835938 39.746094 262.527344 40.609375 264.183594 L 42.6875 263.097656 C 41.832031 261.464844 40.996094 259.796875 40.199219 258.140625 Z M 31.980469 237.523438 L 29.75 238.238281 C 30.320312 240.019531 30.933594 241.816406 31.566406 243.582031 L 33.773438 242.785156 C 33.148438 241.050781 32.546875 239.277344 31.980469 237.523438 Z M 33.570312 248.851562 C 34.257812 250.582031 34.988281 252.328125 35.738281 254.042969 L 37.882812 253.097656 C 37.144531 251.410156 36.421875 249.691406 35.746094 247.984375 Z M 26.648438 215.949219 L 24.339844 216.355469 C 24.664062 218.199219 25.023438 220.0625 25.410156 221.890625 L 27.703125 221.40625 C 27.324219 219.605469 26.96875 217.769531 26.648438 215.949219 Z M 28.945312 226.828125 L 26.671875 227.390625 C 27.121094 229.207031 27.609375 231.042969 28.117188 232.839844 L 30.371094 232.199219 C 29.867188 230.429688 29.386719 228.621094 28.945312 226.828125 Z M 62.851562 296.632812 C 64.082031 298.035156 65.355469 299.441406 66.640625 300.8125 L 68.347656 299.210938 C 67.082031 297.859375 65.828125 296.472656 64.613281 295.089844 Z M 43.304688 269.125 C 44.226562 270.75 45.1875 272.382812 46.164062 273.976562 L 48.160156 272.75 C 47.199219 271.179688 46.25 269.570312 45.34375 267.972656 Z M 70.566406 304.859375 C 71.886719 306.175781 73.253906 307.492188 74.628906 308.773438 L 76.226562 307.058594 C 74.871094 305.796875 73.523438 304.496094 72.21875 303.199219 Z M 55.714844 287.910156 C 56.847656 289.394531 58.023438 290.878906 59.210938 292.332031 L 61.023438 290.847656 C 59.851562 289.417969 58.695312 287.949219 57.578125 286.488281 Z M 51.144531 277.433594 C 52.160156 278.972656 53.21875 280.511719 54.285156 282.015625 L 52.375 283.375 C 51.292969 281.847656 50.21875 280.285156 49.191406 278.726562 L 51.144531 277.433594 " fill-opacity="1" fill-rule="nonzero"/></svg>